<?xml version="1.0" encoding="UTF-8" standalone="no"?>
<!-- Created with Inkscape (http://www.inkscape.org/) -->

<svg
   xmlns:dc="http://purl.org/dc/elements/1.1/"
   xmlns:cc="http://creativecommons.org/ns#"
   xmlns:rdf="http://www.w3.org/1999/02/22-rdf-syntax-ns#"
   xmlns:svg="http://www.w3.org/2000/svg"
   xmlns="http://www.w3.org/2000/svg"
   xmlns:sodipodi="http://sodipodi.sourceforge.net/DTD/sodipodi-0.dtd"
   xmlns:inkscape="http://www.inkscape.org/namespaces/inkscape"
   width="1920px"
   height="1080px"
   id="svg3011"
   version="1.1"
   inkscape:version="0.48.2 r9819"
   sodipodi:docname="New document 3">
  <defs
     id="defs3013" />
  <sodipodi:namedview
     id="base"
     pagecolor="#ffffff"
     bordercolor="#666666"
     borderopacity="1.0"
     inkscape:pageopacity="0.0"
     inkscape:pageshadow="2"
     inkscape:zoom="0.3"
     inkscape:cx="960"
     inkscape:cy="540"
     inkscape:document-units="px"
     inkscape:current-layer="layer1"
     showgrid="false"
     inkscape:window-width="1280"
     inkscape:window-height="738"
     inkscape:window-x="-8"
     inkscape:window-y="-8"
     inkscape:window-maximized="1" />
  <metadata
     id="metadata3016">
    <rdf:RDF>
      <cc:Work
         rdf:about="">
        <dc:format>image/svg+xml</dc:format>
        <dc:type
           rdf:resource="http://purl.org/dc/dcmitype/StillImage" />
        <dc:title></dc:title>
      </cc:Work>
    </rdf:RDF>
  </metadata>
  <g
     id="layer1"
     inkscape:label="Layer 1"
     inkscape:groupmode="layer">
    <path
       style="fill:#000000"
       id="path3019"
       d="m 24.41183,392.07203 c -1.623925,-16.12081 6.705987,-29.065 15.641262,-41.6242 12.493843,-14.9235 27.352316,-27.57328 42.844581,-39.25167 21.003157,-14.85548 4.570866,-3.50529 53.652617,-31.96185 4.73595,-2.74581 7.36369,-4.33138 12.42055,-6.43542 4.08809,-1.70097 8.31231,-3.05495 12.44896,-4.63416 11.45034,-3.80497 23.35832,-5.06506 35.32834,-5.71045 8.94293,-0.96639 17.63911,0.0365 26.43684,1.48121 8.12606,1.8337 13.74642,6.70932 19.19072,12.67584 5.73297,7.93939 9.17534,17.08497 11.17601,26.59714 1.85524,9.55553 1.7333,19.19612 0.83469,28.83281 -1.51634,11.21725 -5.58909,21.85567 -8.70518,32.68529 -2.35105,9.00422 -5.9805,17.50249 -9.89991,25.90773 -3.56148,7.73044 -6.71797,15.57466 -11.03578,22.92241 -3.922,6.20398 -7.28646,12.60242 -9.73734,19.51929 0,0 -44.42189,20.89872 -44.42189,20.89872 l 0,0 c 2.17295,-7.25231 5.05326,-14.05676 9.18186,-20.42975 4.29156,-7.33042 8.39087,-14.58029 11.31761,-22.61704 4.09256,-8.16564 7.81639,-16.42959 10.41212,-25.2154 3.01321,-10.63435 7.00529,-21.02786 9.07936,-31.89719 0.98317,-9.17215 1.24417,-18.32876 -0.2889,-27.47818 -1.63362,-8.68832 -4.43544,-17.09001 -9.93303,-24.16477 -4.93918,-5.12912 -10.19869,-8.93446 -17.48178,-9.92401 -8.46903,-1.3447 -16.93242,-1.52021 -25.4915,-0.81238 -11.67189,0.84559 -23.2778,2.56758 -34.27499,6.76945 -6.24749,2.4108 -12.29233,4.87576 -18.18495,8.08416 -2.06195,1.12268 -8.143128,4.67754 -6.118786,3.48838 38.833866,-22.8121 46.385436,-28.07314 29.021086,-16.41261 -15.67172,11.36521 -30.685068,23.60791 -43.695581,38.02854 -8.441772,11.19745 -17.580153,22.75409 -16.004764,37.61858 0,0 -43.712225,23.05953 -43.712225,23.05953 z"
       inkscape:connector-curvature="0" />
    <path
       style="fill:#000000"
       id="path3021"
       d="m 138.7232,487.82064 c -0.29119,8.4785 -0.19306,16.96528 -0.15639,25.44725 0.97115,4.98384 -1.78051,11.94139 1.07843,16.5599 0.40362,0.65204 1.15608,1.00783 1.73412,1.51175 9.83696,4.04215 20.79071,5.53456 31.22986,7.61794 10.45092,3.01858 21.08062,5.09134 31.90676,6.07381 11.05126,0.72812 22.13508,0.68138 33.20472,0.65465 8.2675,-0.049 16.53483,-0.11841 24.80241,-0.1536 6.80532,0.20159 13.67911,-0.61776 20.39637,0.61246 7.19951,1.84795 11.20234,7.47087 14.86095,13.47047 3.29062,6.48237 3.64859,13.89979 4.03823,21.02876 0.23497,7.53828 0.40404,15.0962 -0.1377,22.62208 -0.39823,4.3022 -2.10924,8.07559 -4.01604,11.86793 0,0 -45.0215,19.87783 -45.0215,19.87783 l 0,0 c 2.32194,-3.03054 4.22763,-6.03824 4.98089,-9.87207 1.0211,-7.25525 0.34381,-14.62068 0.40635,-21.93126 -0.23219,-6.31539 -0.27853,-12.95712 -2.9951,-18.78587 -3.03198,-5.00768 -6.0516,-9.19391 -12.35538,-9.76993 -6.66346,-0.33249 -13.3406,-0.0737 -20.01028,-0.15286 -8.18123,-0.001 -16.36249,-0.008 -24.54358,-0.0612 -11.19206,-0.0801 -22.40142,-0.13457 -33.56444,-1.02799 -10.80879,-1.33919 -21.34784,-3.90065 -31.87575,-6.65201 -11.22615,-2.31837 -23.78223,-3.21167 -33.42257,-9.76984 -0.959929,-1.12118 -2.115421,-2.10091 -2.879788,-3.36355 -3.186098,-5.26304 -1.075635,-12.32408 -1.617249,-18.04006 0.03628,-8.42879 0.137453,-16.86267 -0.156394,-25.28787 0,0 44.113071,-22.47674 44.113071,-22.47674 z"
       inkscape:connector-curvature="0" />
    <path
       style="fill:#000000"
       id="path3023"
       d="m 151.59719,655.20832 c -3.3011,7.94905 -6.63961,15.95102 -7.79839,24.53051 0.84413,8.65875 9.13382,13.16003 15.62225,17.62875 12.88165,8.46633 27.56128,13.70216 41.92047,19.08815 10.20928,3.76494 21.05456,5.133 31.72822,6.93601 11.97828,1.38133 23.88365,3.22381 35.89252,4.37402 9.09786,1.39296 17.83036,4.75737 26.24505,8.41363 11.18751,5.15445 21.53668,12.02147 31.44726,19.29743 7.41169,5.79372 12.93241,13.17955 16.28969,21.92013 2.85633,7.47848 1.55784,14.6179 -0.70213,21.99142 -1.74986,6.6732 -5.5197,12.24937 -9.10459,18.00428 -1.41668,2.48612 -2.98767,4.86456 -4.41151,7.34604 0,0 -45.01275,20.40402 -45.01275,20.40402 l 0,0 c 1.15126,-2.73404 2.36176,-5.3784 4.37544,-7.6161 2.95824,-5.89636 7.67527,-10.63807 9.57154,-17.09889 2.06901,-6.48907 4.73171,-12.28981 2.20027,-19.14748 -2.71538,-7.95136 -7.77818,-14.49194 -14.3849,-19.69422 -9.69013,-7.08813 -19.84742,-13.69873 -31.05943,-18.13725 -8.16002,-3.17018 -16.42363,-6.4877 -25.18928,-7.44346 -12.09501,-1.38 -24.17433,-2.92746 -36.24082,-4.5215 -10.82134,-1.89366 -21.75162,-3.60908 -31.92092,-7.9887 -14.55493,-5.86148 -29.48197,-11.2617 -42.69524,-19.87639 -8.422,-5.57761 -16.73347,-11.35453 -18.662997,-21.96853 0.636857,-8.84807 3.734237,-17.25377 7.100967,-25.40715 0,0 44.78928,-21.03472 44.78928,-21.03472 z"
       inkscape:connector-curvature="0" />
    <path
       style="fill:#000000"
       id="path3025"
       d="m 324.19726,639.54335 c -2.48397,-9.97794 0.99867,-19.20047 5.69223,-27.8792 6.01136,-9.575 14.79955,-16.98036 23.99321,-23.37648 3.79915,-1.23037 45.19098,-36.74715 64.66161,-25.76377 1.54003,0.86873 2.78844,2.17488 4.18266,3.26233 7.99375,7.07681 13.09454,16.18889 17.08454,25.92925 3.12345,10.43181 5.40111,21.15067 7.07821,31.91286 1.20508,8.08386 1.56849,16.25107 1.73745,24.41135 0.0903,6.74267 0.0539,13.48622 0.0378,20.22926 -0.0238,4.94099 -0.0674,9.8815 -0.073,14.82266 0,0 -43.84179,22.33432 -43.84179,22.33432 l 0,0 c 0.002,-4.92605 -0.0344,-9.85167 -0.034,-14.77761 0.0172,-6.72625 0.0528,-13.45251 0.0405,-20.17879 -0.0558,-8.00462 -0.20055,-16.02365 -1.17417,-23.97971 -1.41216,-10.43033 -3.59917,-20.78296 -6.47164,-30.90223 -3.5455,-8.83562 -8.17523,-17.31213 -15.72528,-23.37896 -5.00731,-2.76857 -9.38349,-3.19017 -14.92305,-1.40808 -1.48532,0.47784 -5.68066,2.54299 -4.35046,1.72747 12.3206,-7.55352 24.91614,-14.64913 37.37421,-21.97369 -9.45674,5.49607 -17.95767,12.58549 -24.81866,21.14094 -4.38478,7.31867 -9.31942,15.06389 -7.12648,23.97669 0,0 -43.34392,23.87139 -43.34392,23.87139 z"
       inkscape:connector-curvature="0" />
    <path
       style="fill:#000000"
       id="path3027"
       d="m 505.50687,534.72416 c 8.50562,-2.78743 17.32937,-4.15799 26.20347,-5.05316 9.10542,-1.14902 16.2449,-1.18841 24.60743,2.81805 8.3061,4.35098 13.65669,11.29914 17.79498,19.49733 3.5317,7.36914 3.79992,15.46161 4.73651,23.4032 1.52733,9.6927 2.19497,19.4739 2.58817,29.26875 0.82888,10.78247 -1.41116,21.34732 -4.08799,31.71739 -2.89567,11.19991 -9.44761,20.20429 -16.96856,28.71523 -7.25781,8.109 -15.96803,14.62691 -24.71407,21.0109 -6.5861,4.67575 -13.40331,8.93164 -19.76873,13.91924 -4.25128,3.56392 -6.36245,8.8032 -9.4147,13.30278 -3.04331,4.43247 -3.99556,9.67221 -3.99776,14.95414 0.41772,6.72536 2.26103,13.208 4.40246,19.56194 2.49545,7.37077 3.53694,15.0906 5.32754,22.63811 1.17239,6.40187 2.51562,12.69861 4.18033,18.98769 2.49135,6.43246 3.80906,13.18812 5.50406,19.85127 2.68439,9.8943 4.60033,19.97051 6.49591,30.03907 2.95292,11.73067 4.46483,23.71805 6.65278,35.59613 0.92153,6.26615 2.65502,12.3652 4.15408,18.50695 0,0 -43.26208,23.30451 -43.26208,23.30451 l 0,0 c -1.39193,-6.28469 -3.15823,-12.50113 -3.9626,-18.90004 -2.04569,-11.86685 -3.63924,-23.82181 -6.70167,-35.48795 -1.97697,-9.92811 -3.61545,-19.95509 -6.64082,-29.63426 -1.70099,-6.63845 -3.09697,-13.36849 -5.6817,-19.73903 -1.60151,-6.36018 -3.1168,-12.65878 -4.07696,-19.15832 -1.74438,-7.39061 -2.73158,-14.93995 -5.13384,-22.16218 -2.4144,-6.70089 -4.23414,-13.64074 -5.09593,-20.71855 -0.67816,-5.99647 0.0875,-12.15035 2.5381,-17.70973 2.95661,-4.92897 6.16845,-9.69852 9.05524,-14.68042 5.91913,-5.71911 12.90686,-10.00606 19.86497,-14.34338 8.51363,-6.59865 17.78247,-12.28634 25.24045,-20.19374 7.31554,-8.06096 14.75299,-15.77978 17.71153,-26.62816 3.09892,-9.78171 5.54066,-20.05327 4.88108,-30.36803 -0.37724,-9.61811 -0.9246,-19.24176 -2.59455,-28.73878 -1.12392,-7.37825 -0.88055,-15.03807 -3.93561,-22.01846 -3.53624,-7.28086 -8.40791,-13.1715 -16.01255,-16.46236 -7.51995,-2.60319 -15.21841,-1.7874 -23.02148,-0.86638 -8.9576,1.18913 -17.67723,3.32115 -26.42988,5.52448 0,0 39.56239,-29.75423 39.56239,-29.75423 z"
       inkscape:connector-curvature="0" />
    <path
       style="fill:#000000"
       id="path3029"
       d="m 437.63147,789.04817 c -7.17466,4.94749 -13.61757,10.80741 -20.20173,16.49017 -5.5176,4.95421 -10.25612,10.68843 -14.53893,16.72046 -4.02911,5.41194 -7.70773,11.08401 -10.67497,17.14654 -2.64916,5.95709 -3.1713,12.44339 -3.49981,18.86672 -0.13071,3.30605 -0.138,6.61484 -0.15333,9.92281 0,0 -43.94532,22.37913 -43.94532,22.37913 l 0,0 c -7.6e-4,-3.36375 -0.007,-6.72784 0.0668,-10.09104 0.21005,-6.91002 0.53216,-13.89566 2.7281,-20.51502 2.52588,-6.55452 6.2585,-12.45684 10.23046,-18.22776 4.73359,-5.89223 8.62255,-12.47819 14.28634,-17.61533 6.21973,-5.91074 12.84075,-11.63225 19.78557,-16.64989 0,0 45.91685,-18.42679 45.91685,-18.42679 z"
       inkscape:connector-curvature="0" />
    <path
       style="fill:#000000"
       id="path3031"
       d="m 590.86392,636.21002 c -2.87086,-8.90718 -4.01697,-16.06698 -0.93369,-25.02703 0.63058,-1.17399 1.14444,-2.4186 1.89174,-3.52197 1.24307,-1.83534 4.05242,-4.97493 5.99889,-6.13596 22.57813,-13.46739 32.64822,-23.95664 53.33001,-28.37282 7.74564,-1.15483 15.65275,-1.53045 23.41554,-0.47425 9.45029,2.11938 17.94512,5.96385 25.65877,11.773 7.52785,6.23277 13.88367,13.42516 19.22198,21.58484 4.41542,7.87705 8.03894,16.23651 11.20388,24.6916 2.65081,8.77756 4.20438,17.8036 6.49118,26.69062 2.13418,9.49805 4.47797,18.95799 6.27494,28.52822 0.60548,8.16697 2.73384,15.90681 5.02409,23.71941 1.31403,5.07886 0.71811,2.54864 1.79352,7.5893 0,0 -43.41871,23.21478 -43.41871,23.21478 l 0,0 c -0.89685,-4.8111 -0.38561,-2.38843 -1.54218,-7.26619 -2.24641,-7.9902 -4.94964,-15.81617 -5.21701,-24.20651 -1.54924,-9.50454 -3.93821,-18.83115 -5.92947,-28.24641 -2.35036,-8.70414 -4.23983,-17.44225 -6.41165,-26.17563 -3.02505,-8.10861 -6.40092,-16.17196 -10.53743,-23.77342 -5.12243,-7.54623 -11.12778,-14.34067 -18.25646,-20.07883 -7.38632,-4.92271 -15.4582,-8.35609 -24.3298,-9.52829 -7.52868,-0.26508 -15.1542,-0.0318 -22.4702,1.94221 -15.97884,5.44269 -37.61014,20.77019 31.40236,-19.68332 1.20166,-0.70439 -10.05463,5.85238 -8.89062,7.19289 -4.18473,7.80117 -3.65583,13.48393 -0.42575,21.69237 0,0 -43.34393,23.87139 -43.34393,23.87139 z"
       inkscape:connector-curvature="0" />
    <path
       style="fill:#000000"
       id="path3033"
       d="m 632.05654,677.82064 c -0.7266,8.51174 0.1254,16.78494 3.33539,24.71269 2.71616,6.69123 7.05831,12.46961 12.31244,17.36291 4.21422,5.20579 10.44988,7.60474 15.90124,11.13183 2.8543,1.40817 5.4152,3.28356 7.9766,5.14927 0,0 -41.58482,26.50673 -41.58482,26.50673 l 0,0 c -2.58199,-1.71348 -5.20033,-3.3557 -7.88425,-4.90675 -5.86254,-3.49525 -11.87569,-6.74838 -16.31464,-12.11094 -5.54016,-5.56206 -10.51456,-11.73942 -13.35825,-19.14732 -3.3274,-8.40278 -4.7616,-17.17934 -4.49679,-26.22168 0,0 44.11308,-22.47674 44.11308,-22.47674 z"
       inkscape:connector-curvature="0" />
    <path
       style="fill:#000000"
       id="path3035"
       d="m 626.1627,775.96883 c 6.06314,6.92768 14.02539,11.83448 22.37807,15.50732 7.91684,2.52406 15.88387,5.00934 24.09273,6.40556 8.24852,2.34598 16.78563,3.32337 25.31246,3.93907 7.13156,0.41916 14.2784,0.40233 21.41931,0.39951 7.15649,-0.0351 14.31286,0.002 21.46937,-0.005 7.13117,-0.63913 13.21586,0.54758 18.77708,5.11987 5.46534,5.12117 7.03393,12.62376 8.17587,19.72822 0.13195,1.21422 0.2639,2.42844 0.39585,3.64266 0,0 -43.68667,22.78492 -43.68667,22.78492 l 0,0 c -0.0927,-1.14283 -0.18539,-2.28565 -0.27808,-3.42847 -0.75214,-5.81877 -1.5313,-12.33585 -6.41365,-16.23151 -5.16844,-3.20952 -10.85046,-2.86756 -16.77275,-2.68997 -7.18864,0.0111 -14.37701,0.0861 -21.5657,0.0467 -7.18907,-0.0519 -14.38703,-0.14594 -21.55024,-0.82014 -8.64703,-0.90501 -17.21287,-2.32754 -25.67986,-4.32074 -8.3414,-1.86491 -16.59945,-4.33417 -24.51009,-7.57164 -8.85028,-4.40834 -17.26319,-9.82617 -24.03264,-17.1233 0,0 42.46894,-25.38291 42.46894,-25.38291 z"
       inkscape:connector-curvature="0" />
    <path
       style="fill:#000000"
       id="path3037"
       d="m 791.70074,583.35894 c -82.31896,50.31126 -17.86277,5.25338 11.8229,-6.12622 4.39933,-1.68643 8.84643,-2.78029 13.44669,-3.73238 8.63333,-0.60215 16.0869,3.99093 22.7885,8.92827 5.77755,5.41462 9.35901,12.65479 12.92193,19.63018 3.37993,8.10347 6.19428,16.36585 7.89661,24.98186 1.32967,7.83512 0.95671,15.80874 1.69167,23.68885 0.556,7.0794 1.75897,12.7651 8.33455,16.24355 7.80221,2.51887 16.25833,2.06641 24.36891,2.15511 6.45382,-0.13223 13.42353,-0.30193 19.63937,-2.35457 0.42494,-0.14033 9.33396,-4.17792 9.73872,-4.36077 10.20377,-3.22459 19.79349,-7.89959 29.66392,-11.91208 8.72211,-4.93222 17.60566,-9.68306 26.66539,-13.98506 6.5637,-2.63562 12.21958,-6.74153 19.534,-6.39798 7.6702,1.57308 11.368,7.29218 13.5963,14.28225 1.7182,7.31786 1.5232,14.90425 1.5704,22.37384 0.2217,3.52262 -0.1864,6.99237 -0.7224,10.46059 0,0 -44.39593,21.58881 -44.39593,21.58881 l 0,0 c 0.72419,-3.21519 1.65372,-6.35277 1.27908,-9.69957 0.0125,-7.01945 0.16298,-14.11112 -1.05703,-21.04962 -1.4157,-5.25775 -3.88735,-9.15734 -9.97024,-8.57386 -6.41298,1.64998 -12.10445,5.09747 -18.1822,7.6497 -8.92272,4.54748 -17.76363,9.25633 -26.73809,13.69839 -9.73376,4.32769 -19.72449,7.93715 -29.6208,11.87106 -9.84194,3.908 -19.97637,5.77142 -30.61086,5.0987 -8.86355,-0.16278 -18.27892,0.28076 -26.25927,-4.16715 -6.91288,-5.06674 -9.86201,-11.5413 -10.4482,-20.06121 -1.05471,-7.7609 -0.2942,-15.65631 -1.51694,-23.42181 -1.35914,-8.22603 -3.8747,-16.08166 -7.14746,-23.75203 -3.19751,-6.25367 -6.47528,-12.82052 -11.77469,-17.5498 -6.21815,-4.19597 -12.60354,-7.52938 -20.29339,-5.57467 -4.38453,1.19138 -8.61267,2.51569 -12.75757,4.40978 -1.49297,0.68224 -5.82265,3.02697 -4.41057,2.19005 8.88169,-5.26408 103.5763,-60.08114 -7.67009,4.35757 0,0 38.61679,-30.88978 38.61679,-30.88978 z"
       inkscape:connector-curvature="0" />
    <path
       style="fill:#000000"
       id="path3039"
       d="m 881.59719,745.20832 c -3.38568,8.6584 -7.09277,17.18236 -10.88914,25.6666 -3.76284,7.54214 -6.36878,15.4692 -7.80092,23.75716 -0.99929,7.86219 -2.60516,15.60501 -3.42699,23.49396 -0.78653,8.51931 -0.86464,17.07775 -0.90364,25.62608 -0.007,7.05147 0.0255,14.1029 0.0421,21.15434 0.0823,1.17764 0.1646,2.35527 0.24689,3.53291 0,0 -43.61993,22.81716 -43.61993,22.81716 l 0,0 c -0.18616,-1.31942 -0.37232,-2.63884 -0.55848,-3.95827 -0.003,-7.08283 -0.01,-14.16579 0.0463,-21.24845 0.0906,-8.68549 0.17908,-17.38209 0.79477,-26.04883 0.67986,-7.97196 1.98109,-15.81011 3.17625,-23.69641 1.20273,-8.68208 3.46349,-17.10504 7.38184,-24.99303 3.6608,-8.32195 7.62384,-16.50835 10.72162,-25.0685 0,0 44.78928,-21.03472 44.78928,-21.03472 z"
       inkscape:connector-curvature="0" />
    <path
       style="fill:#000000"
       id="path3041"
       d="m 1055.7526,595.44959 c 9.3634,0.19148 18.7304,0.17778 28.0955,0.1664 9.0631,-0.0385 18.1261,-0.0331 27.1892,-0.0622 6.534,1.49645 13.3425,1.78914 19.8019,3.51563 6.7249,0.86718 10.5488,6.33596 15.6951,9.97026 4.9561,3.8022 7.2887,9.51591 10.1418,14.83314 2.5987,5.77145 5.0202,11.69393 6.6982,17.81489 1.5637,5.08372 3.8767,9.84694 5.8161,14.77937 1.5691,5.75666 2.742,11.62656 3.9872,17.47132 0.6384,6.53981 3.2632,12.44555 5.5849,18.48741 0.3171,1.00832 0.6342,2.01664 0.9514,3.02496 0,0 -43.3238,23.69992 -43.3238,23.69992 l 0,0 c -0.2631,-0.91278 -0.5262,-1.82556 -0.7893,-2.73834 -2.3141,-6.28793 -5.2025,-12.40534 -5.899,-19.16749 -1.1763,-5.59868 -2.5963,-11.11568 -3.7295,-16.71388 -1.9374,-5.13496 -4.3889,-10.04642 -5.9925,-15.31836 -1.4308,-5.80395 -3.7618,-11.34101 -6.1791,-16.78516 -2.4928,-4.72822 -4.4983,-9.77041 -9.0419,-12.99015 -4.5302,-3.63511 -8.2844,-7.6422 -14.4424,-8.25078 -6.3176,-1.07142 -12.6602,-2.23974 -19.0461,-2.74028 -9.006,-0.0292 -18.012,-0.0236 -27.018,-0.0622 -9.5178,-0.0116 -19.0374,-0.0214 -28.5535,0.1664 0,0 40.0538,-29.10082 40.0538,-29.10082 z"
       inkscape:connector-curvature="0" />
    <path
       style="fill:#000000"
       id="path3043"
       d="m 1101.0386,732.48944 c -6.8348,8.36158 -10.9991,18.11778 -14.4745,28.22786 -2.7944,8.75768 -3.9308,17.86707 -4.467,27.00432 -0.6581,6.88171 -0.2847,13.32694 1.8764,19.87299 2.3293,4.69189 4.8887,9.60559 9.37,12.53984 5.2278,5.21714 11.954,8.2452 18.2008,11.99739 7.6166,4.12683 15.2468,8.244 23.0418,12.02874 6.5556,3.4983 12.7764,7.8254 18.1004,13.02423 3.7021,4.40462 7.3204,8.90947 10.825,13.47967 3.5688,5.23161 4.3727,11.42932 4.8892,17.5806 0.1911,6.47906 -1.526,12.56821 -4.7575,18.12988 -2.9069,5.68305 -7.9657,9.3418 -12.8211,13.20981 -19.0854,8.12791 -37.9902,27.50039 -60.3392,30.91426 0,0 39.3251,-29.8204 39.3251,-29.8204 l 0,0 c 18.1986,-4.85511 48.6559,-27.92267 -24.9139,17.06269 4.8926,-3.15449 9.9918,-6.66707 13.5394,-11.32614 3.0236,-4.89111 6.0328,-9.39879 6.1521,-15.44189 -0.3165,-5.18002 -0.5902,-10.56249 -3.579,-15.0062 -3.3791,-4.35158 -6.6616,-8.81898 -10.3913,-12.86761 -5.0931,-4.73743 -10.7587,-8.89858 -17.0259,-11.95359 -7.8117,-3.9812 -15.6649,-7.87947 -23.245,-12.29501 -6.5412,-3.73197 -13.231,-7.20855 -18.8477,-12.3242 -4.7724,-4.11595 -8.084,-9.42478 -10.6789,-15.14198 -2.4616,-7.13712 -3.6043,-13.97323 -2.6885,-21.5645 0.4941,-9.55745 1.6088,-19.08223 4.2834,-28.3063 3.0782,-10.30334 6.7966,-20.56536 13.3589,-29.21865 0,0 45.267,-19.80581 45.267,-19.80581 z"
       inkscape:connector-curvature="0" />
    <path
       style="fill:#000000"
       id="path3045"
       d="m 1222.1735,628.05749 c 9.076,-1.22676 18.2226,-1.7731 27.3654,-2.19783 7.8509,-0.1908 15.6896,-1.32862 23.1399,1.56565 6.635,2.14312 9.8709,7.89392 13.1245,13.58208 3.7539,7.13549 5.3552,15.17433 6.982,23.01083 1.5779,7.86234 2.1296,15.86386 2.4191,23.86075 0.1792,6.78951 0.1459,13.58222 0.1334,20.3734 -0.1231,8.3839 -0.096,16.76867 -0.141,25.15304 0.03,8.40789 0.3356,16.77505 -0.7621,25.12523 -1.4846,8.41347 -1.6345,16.96683 -2.5555,25.43744 -1.2296,6.99416 -2.275,14.00026 -2.8193,21.08211 -0.5324,8.09313 -0.5405,16.20485 -0.5303,24.31129 -0.109,7.028 -1.8518,13.81168 -3.8225,20.50374 -1.8167,6.01075 -2.2961,12.26933 -2.5918,18.50504 -0.5667,6.06399 -0.055,11.92053 1.1486,17.85003 0.8409,4.68455 1.294,9.36735 2.5183,13.97316 0,0 -43.4424,23.60665 -43.4424,23.60665 l 0,0 c -1.3054,-4.71081 -2.0043,-9.4193 -2.6482,-14.26173 -1.2932,-6.29888 -2.2708,-12.46967 -1.6145,-18.94132 0.1928,-6.55717 0.4707,-13.15846 2.0573,-19.55584 1.7691,-6.43694 4.0197,-12.66377 4.6153,-19.38038 0.033,-8.17507 -0.063,-16.35612 0.2265,-24.52632 0.4331,-7.21116 1.2477,-14.38416 2.7782,-21.4543 1.4716,-8.3919 1.0583,-17.0183 2.5787,-25.42455 1.1506,-8.17486 1.3964,-16.30688 1.1422,-24.57552 -0.038,-8.34945 8e-4,-16.69916 -0.084,-25.04845 0.018,-6.75381 0.059,-13.50808 -0.022,-20.26163 -0.1564,-7.76104 -0.4698,-15.54247 -1.8619,-23.19823 -1.4472,-7.30915 -3.0746,-14.78575 -6.4183,-21.4801 -2.848,-4.79369 -5.3409,-9.115 -11.1758,-10.46562 -7.192,-1.49551 -14.631,-0.35761 -21.917,-0.33573 -9.1715,0.48759 -18.3558,1.15713 -27.3854,2.92134 0,0 39.5623,-29.75423 39.5623,-29.75423 z"
       inkscape:connector-curvature="0" />
    <path
       style="fill:#000000"
       id="path3047"
       d="m 1222.4193,498.78293 c 8.0788,0.0132 16.1227,-0.23124 23.8053,2.55914 6.0548,2.09706 11.1902,6.18733 14.9134,11.34506 3.9552,5.40054 5.5464,11.92622 7.5012,18.21221 1.0544,3.34341 1.6509,6.79082 2.2254,10.23925 0,0 -43.5867,23.05561 -43.5867,23.05561 l 0,0 c -0.4562,-3.23255 -0.9269,-6.46682 -1.8795,-9.60112 -1.773,-5.7518 -3.1395,-11.80455 -6.7993,-16.70793 -3.2961,-4.34271 -7.8841,-7.24875 -13.1204,-8.7441 -7.5933,-1.79668 -15.3605,-1.46608 -23.1133,-1.25731 0,0 40.0539,-29.10081 40.0539,-29.10081 z"
       inkscape:connector-curvature="0" />
    <path
       style="fill:#000000"
       id="path3049"
       d="m 1345.5127,657.72558 c 4.2706,-4.96815 9.8403,-8.5577 15.4864,-11.7759 33.2364,-18.94442 43.0955,-26.55268 72.4261,-36.67278 17.5398,-5.88687 35.6831,-9.95339 52.9315,-16.69133 13.0175,-5.44943 27.0548,-7.13656 40.9741,-8.51132 12.2855,-1.1422 24.5588,-3.11228 36.054,2.30391 6.8313,4.79047 7.8828,13.02825 8.5597,20.74843 0.2327,7.75855 0.4335,15.56419 -0.1245,23.31242 -0.9483,6.97083 -3.7769,13.50763 -5.9435,20.16247 -2.3746,7.69243 -6.2875,14.79871 -10.1865,21.80556 -3.6131,5.11707 -7.1593,10.28089 -10.3195,15.69369 -2.0788,4.98047 -3.5462,10.21197 -5.2661,15.33708 -8.7771,17.94352 -39.8982,27.2139 -50.7941,33.37797 0,0 38.8179,-30.68416 38.8179,-30.68416 l 0,0 c -13.3811,7.78093 -26.7622,15.56187 -40.1433,23.34281 1.7415,-0.70545 2.619,-0.8663 4.0089,-2.18273 7.4269,-7.03432 -4.2255,2.97877 3.1333,-3.23034 2.6999,-4.7482 3.5939,-10.41113 5.2227,-15.57998 2.4904,-5.866 6.3624,-11.19479 10.2501,-16.20517 4.4924,-6.30973 7.7138,-13.58951 10.8898,-20.62345 1.7092,-6.58862 4.315,-12.87083 6.1243,-19.3962 1.4219,-7.35811 0.4603,-14.99352 0.5993,-22.45099 -0.3165,-5.76369 -0.1716,-12.86464 -5.777,-16.1027 -10.9142,-3.9487 -22.5326,-1.68042 -33.8221,-0.84128 -13.8756,1.70542 -27.5949,4.31012 -40.5824,9.68049 -17.1861,5.88538 -34.9258,9.97818 -52.0756,15.98685 -3.7473,1.40465 -7.5423,2.68828 -11.242,4.21395 -17.7066,7.30178 -27.5937,15.16608 21.3011,-14.16254 4.0255,-2.4146 -8.1841,4.63504 -12.0032,7.36434 -1.0326,0.73793 -2.0011,1.56167 -3.0016,2.3425 0,0 -45.4978,19.4384 -45.4978,19.4384 z"
       inkscape:connector-curvature="0" />
    <path
       style="fill:#000000"
       id="path3051"
       d="m 1450.9648,685.71483 c -7.6134,5.76235 -12.6801,13.59308 -15.9905,22.41905 -1.9889,7.31528 -3.6811,15.14113 -2.5656,22.72725 2.4738,6.74267 7.3142,12.20966 11.6769,17.79747 6.0781,6.07094 12.4908,11.79454 18.7535,17.67282 7.3447,5.27932 14.2683,11.09384 21.7773,16.14288 5.8469,3.95702 11.059,8.6858 16.5386,13.09395 4.1996,3.81823 7.9497,8.0274 11.274,12.6369 4.3613,4.73699 7.3949,10.45902 9.7737,16.39547 2.3051,6.47741 2.7523,13.34911 3.0365,20.15645 0.1835,6.70207 0.1291,13.40776 0.1081,20.1115 -0.1985,6.58746 -2.8582,12.7302 -5.8881,18.47978 -3.797,5.60616 -8.9869,10.11133 -14.3596,14.16058 -19.2385,13.18435 -39.3511,25.70907 -61.1398,34.12912 -8.1725,2.04587 -15.9758,5.23686 -24.2167,7.05179 -8.1896,2.59601 -16.5808,4.30057 -24.8529,6.57304 -6.8192,1.81802 -13.8648,2.25846 -20.8836,2.50376 -5.5673,0.13671 -11.1368,0.11339 -16.7052,0.10346 0,0 39.8984,-28.98867 39.8984,-28.98867 l 0,0 c 5.5193,-0.0113 11.042,-0.0135 16.5554,-0.3037 6.8196,-0.45833 13.6016,-1.31826 20.1729,-3.28694 8.2358,-2.20024 16.6056,-3.87866 24.7607,-6.3959 8.0765,-2.30871 16.0566,-4.99169 23.9909,-7.7403 16.6539,-7.11895 29.562,-16.57834 -32.2607,19.87863 -3.8049,2.24379 12.2216,-6.24156 8.6449,-5.69126 5.8465,-2.89788 10.5981,-7.59242 15.1641,-12.18578 3.6851,-4.39304 5.867,-10.41334 7.1717,-15.91343 0.023,-6.64809 0.076,-13.29695 -0.026,-19.94462 -0.1689,-6.27451 -0.3546,-12.63777 -2.2704,-18.6723 -2.1295,-5.59469 -5.1416,-10.78956 -9.1364,-15.27264 -3.1824,-4.22284 -6.8389,-8.02123 -10.736,-11.59024 -5.1556,-4.50364 -10.3578,-8.93732 -15.9551,-12.8973 -7.5955,-5.31495 -14.8598,-11.04537 -22.133,-16.78976 -6.4833,-6.038 -13.2838,-11.77152 -19.3899,-18.18873 -4.8245,-6.20027 -9.8228,-12.44969 -12.7765,-19.8018 -1.9883,-8.27216 -0.1528,-16.9341 1.6347,-25.13662 2.8553,-9.41642 7.2333,-17.90799 14.4366,-24.80711 0,0 45.9168,-18.4268 45.9168,-18.4268 z"
       inkscape:connector-curvature="0" />
    <path
       style="fill:#000000"
       id="path3053"
       d="m 1356.0163,826.82477 c 3.7927,7.15046 8.5871,13.70994 13.9248,19.77745 3.5218,4.09068 8.2499,6.83945 12.8998,9.46617 0,0 -41.4734,26.82276 -41.4734,26.82276 l 0,0 c -4.9209,-3.14182 -9.896,-6.30064 -13.6014,-10.91187 -5.3906,-6.5502 -10.3191,-13.43395 -14.7234,-20.68603 0,0 42.9736,-24.46848 42.9736,-24.46848 z"
       inkscape:connector-curvature="0" />
    <path
       style="fill:#000000"
       id="path3055"
       d="m 1511.7361,351.45835 c 4.0146,-11.57163 11.0562,-21.59778 18.9726,-30.80339 7.717,-9.17781 17.1949,-16.43033 27.2091,-22.89819 26.104,-15.96921 52.6044,-31.30949 79.7447,-45.44792 11.8706,-6.7248 24.1249,-12.59819 36.9803,-17.17718 10.941,-3.10147 21.5552,-7.22522 32.466,-10.40072 8.0439,-2.08988 16.4115,-2.36306 24.6782,-2.56974 8.9695,-0.62089 12.9729,0.20523 18.284,7.6976 3.3975,6.4613 4.8013,13.78703 6.4107,20.86306 1.56,8.41516 1.7721,16.99649 2.0116,25.52862 0.1681,7.31106 0.1657,14.62448 0.1649,21.93702 -0.1525,7.57234 0.1898,15.15931 -0.3377,22.71695 -1.1612,7.68027 -4.5525,14.70207 -7.8924,21.62728 -3.7731,7.59804 -6.2889,15.67162 -10.0939,23.25465 -4.2371,8.14991 -8.3673,16.34664 -13.271,24.12225 -3.1115,4.21727 -1.4605,2.19428 -4.9503,6.07123 0,0 -45.4491,18.87949 -45.4491,18.87949 l 0,0 c 3.6602,-3.42039 1.8742,-1.67152 5.3588,-5.24571 5.2617,-7.45169 9.5257,-15.49762 13.5842,-23.65016 3.9358,-7.47723 6.788,-15.24352 10.0089,-23.03604 3.068,-6.63285 6.6798,-13.03816 8.6044,-20.14316 1.0996,-7.34606 0.2854,-14.81647 0.5085,-22.22365 0.026,-7.30184 0.078,-14.60392 0.023,-21.90573 -0.1176,-8.22447 -0.2576,-16.49408 -1.6803,-24.61801 -1.3608,-6.42412 -2.6954,-13.06387 -5.4528,-19.02554 -4.224,-5.39026 -9.2738,-3.86504 -15.5551,-3.77888 -8.0261,0.35647 -16.0834,0.99018 -23.7771,3.48965 -10.6771,3.37295 -21.3293,6.83592 -31.9482,10.38631 -12.5948,4.9162 -24.6146,11.05622 -36.4664,17.55125 -5.4241,2.86737 -7.7575,4.07241 -13.131,7.02647 -2.1593,1.18706 -8.5835,4.84388 -6.4554,3.6018 65.9567,-38.49548 37.4082,-21.80523 22.9595,-13.09114 -10.076,5.96652 -19.8019,12.77478 -27.5835,21.61835 -8.0704,8.19716 -15.4272,17.5868 -19.136,28.60846 0,0 -44.7893,21.03472 -44.7893,21.03472 z"
       inkscape:connector-curvature="0" />
    <path
       style="fill:#000000"
       id="path3057"
       d="m 1616.0554,414.03479 c 3.7015,10.51655 8.149,20.713 13.6523,30.40252 4.8871,9.13223 12.2805,15.96126 20.5305,21.98878 11.1928,8.90714 23.602,15.95423 36.5198,22.00361 9.3012,5.00086 18.9037,9.17724 28.812,12.77697 9.1113,3.26625 18.1343,6.76906 26.4478,11.77306 6.4403,3.11289 12.0421,7.43834 17.3023,12.27382 5.3652,5.28398 7.5178,12.08751 8.6954,19.31332 0.8693,7.39952 0.6818,14.87304 0.6787,22.31008 -0.012,5.96426 -0.03,11.92851 -0.042,17.89277 0,0 -43.9284,22.36506 -43.9284,22.36506 l 0,0 c 0.026,-5.97649 0.066,-11.95289 0.1151,-17.92924 0.041,-7.20581 0.129,-14.42771 -0.4495,-21.61654 -0.7633,-6.17055 -2.1765,-11.97328 -6.9397,-16.35765 -5.1327,-4.46417 -10.661,-8.32514 -16.6825,-11.50202 -8.1939,-4.66171 -16.954,-8.04689 -25.8571,-11.10321 -9.935,-3.64442 -19.2888,-8.51716 -28.6155,-13.49665 -13.0411,-6.50584 -25.7328,-13.6436 -37.2983,-22.5772 -8.7401,-6.52663 -16.5559,-13.93353 -21.6444,-23.74999 -5.4054,-9.91105 -9.9101,-20.20862 -14.3486,-30.58827 0,0 43.0518,-24.17922 43.0518,-24.17922 z"
       inkscape:connector-curvature="0" />
    <path
       style="fill:#000000"
       id="path3059"
       d="m 1647.9978,635.53361 c -3.6647,7.89697 -8.2413,15.32862 -11.8477,23.24693 -3.3029,8.64414 0.9153,15.06482 6.4234,21.52668 7.2788,8.29598 17.3628,13.12688 26.676,18.69102 9.1334,5.50787 17.5188,12.09762 25.9206,18.68972 9.1698,7.30823 19.7675,12.32805 29.5924,18.64054 7.7351,5.09487 14.3475,11.62244 21.8226,17.04558 6.8996,4.18637 11.8986,8.05578 16.2937,14.86297 3.7349,5.92027 4.444,12.7963 5.6873,19.49997 1.6247,6.67311 2.5137,13.4648 3.0187,20.30342 0.3855,7.11744 0.5856,14.25021 0.077,21.36267 -0.3649,7.58852 -2.583,14.4943 -5.7027,21.32588 -2.1306,5.56208 -6.0707,9.86128 -9.7711,14.3806 -4.1194,5.13427 -8.5359,10.01495 -13.1758,14.68028 0,0 -45.4919,18.62227 -45.4919,18.62227 l 0,0 c 4.9287,-4.13736 9.1443,-8.99396 13.2658,-13.92836 3.511,-4.41401 7.5006,-8.2892 10.3173,-13.19579 2.9024,-6.83455 6.3894,-12.15429 6.4976,-19.99474 0.926,-6.81074 0.2998,-13.72054 0.1933,-20.57775 -0.3786,-6.63528 -1.0612,-13.25196 -2.7046,-19.71117 -1.337,-6.03998 -1.4078,-12.44778 -4.8102,-17.85857 -3.9287,-5.93645 -9.2767,-9.64379 -15.217,-13.51103 -7.1776,-5.56137 -13.8375,-11.76753 -21.3601,-16.88381 -9.9962,-6.25823 -20.5933,-11.58408 -29.7791,-19.06983 -8.3374,-6.39991 -16.8307,-12.59089 -25.7836,-18.09649 -9.7159,-5.91382 -19.9539,-11.3848 -27.5745,-20.05096 -6.3569,-7.76026 -11.6183,-15.696 -8.9818,-26.16144 2.953,-8.24464 8.1169,-15.34512 11.36,-23.45445 0,0 45.0546,-20.38414 45.0546,-20.38414 z"
       inkscape:connector-curvature="0" />
    <path
       style="fill:#ff2a2a"
       d="m 186.24259,423.5 c 15.628,-31.09474 27.09074,-66.82768 27.09074,-84.45033 0,-18.32547 -8.58195,-37.44129 -19.77836,-44.05517 -11.07528,-6.54234 -32.43081,-7.26163 -57.29266,-1.92971 -13.24751,2.84108 -21.36164,7.41448 -34.00553,19.16666 -20.932777,19.4565 -35.582197,39.37814 -35.617047,48.43534 -0.02,5.16265 -5.26917,9.73189 -19.999999,17.40893 -22.202215,11.57078 -24.410839,9.69078 -13.572887,-11.55336 14.366148,-28.15998 79.070823,-77.21243 124.868173,-94.66225 23.39615,-8.91446 60.76819,-9.64523 73.31422,-1.43359 11.73962,7.68383 21.91564,29.74671 22.01089,47.72236 0.0908,17.12996 -10.23477,51.30668 -25.85958,85.59314 -11.28193,24.75663 -12.86051,26.56886 -31.21333,35.83334 -10.63174,5.36688 -20.13996,9.75797 -21.12937,9.75797 -0.98941,0 4.04373,-11.625 11.18474,-25.83333 z"
       id="path3193"
       inkscape:connector-curvature="0" />
    <path
       style="fill:#ff2a2a"
       d="m 260,610.69836 c 0,-18.07358 -3.99491,-30.58131 -11.33235,-35.48065 -2.01721,-1.34693 -20.37753,-2.47193 -40.80072,-2.5 -37.83849,-0.052 -97.71961,-9.67939 -106.73321,-17.16002 -2.8505,-2.3657 -4.467053,-11.14915 -4.467053,-24.27145 l 0,-20.56412 18.407183,-9.02773 c 10.12395,-4.96525 19.12395,-9.02772 20,-9.02772 0.87605,0 1.59282,8.80505 1.59282,19.56679 l 0,19.5668 14.16666,3.76182 c 32.51726,8.63463 46.2481,10.27896 86.48079,10.35643 39.33334,0.0757 42.94441,0.62364 51.26142,7.77763 6.91994,5.95228 9.3201,11.57603 10.5926,24.81924 2.85856,29.74958 -1.38473,36.28772 -30.81218,47.47602 C 260.06002,629.14551 260,629.03566 260,610.69836 z"
       id="path3195"
       inkscape:connector-curvature="0" />
    <path
       style="fill:#ff2a2a"
       d="m 296.95108,824.46671 c 8.25584,-18.6637 6.00659,-28.51256 -9.65131,-42.26038 -18.32843,-16.09257 -42.23605,-25.36249 -79.83231,-30.95411 -40.19134,-5.97757 -80.88351,-21.58018 -96.41893,-36.96992 -9.98924,-9.89558 -10.41692,-11.2914 -7.22085,-23.5671 3.01431,-11.57763 5.56912,-14.03714 22.66397,-21.81859 l 19.26669,-8.77005 -1.58776,14.08658 c -1.56069,13.84643 -1.30732,14.25913 14.86279,24.20869 23.79879,14.64355 51.21461,23.4854 90.43793,29.16705 37.08528,5.37196 59.23034,14.75789 79.25157,33.58987 14.82855,13.94775 16.65045,23.84329 8.06451,43.80186 -6.06245,14.09255 -9.67518,17.71358 -25.33621,25.39447 -10.04604,4.92704 -18.89795,8.95825 -19.67092,8.95825 -0.77296,0 1.55392,-6.68998 5.17083,-14.86662 z"
       id="path3197"
       inkscape:connector-curvature="0" />
    <path
       style="fill:#ff2a2a"
       d="m 406.54957,676.88132 c -0.19886,-43.95168 -11.1551,-81.07471 -25.55915,-86.60207 -6.25549,-2.40045 -14.29859,7.21553 -14.37923,17.19118 -0.04,4.94199 -5.63792,9.87026 -20,17.60737 -19.34941,10.42386 -19.94452,10.52948 -19.94452,3.5396 0,-11.76976 13.2408,-27.60761 35.96182,-43.01538 23.15855,-15.70446 38.10528,-22.93535 47.4089,-22.93535 7.67935,0 25.94116,20.81199 28.57128,32.56113 1.12109,5.00804 3.38439,14.35553 5.02958,20.7722 1.64518,6.41667 2.9996,24.02007 3.00983,39.11868 l 0.0186,27.45202 -20,10.09597 -20,10.09596 -0.1171,-25.88131 0,0 z"
       id="path3199"
       inkscape:connector-curvature="0" />
    <path
       style="fill:#ff2a2a"
       d="m 493.65931,895.16667 c -1.95788,-9.625 -10.54886,-47.56667 -19.09107,-84.31482 -15.34069,-65.99483 -15.461,-66.96298 -9.80252,-78.88734 3.15084,-6.63988 11.91499,-16.16636 19.47591,-21.16993 45.06841,-29.82487 58.16683,-54.26423 53.99888,-100.75244 -3.9179,-43.69911 -15.64514,-57.22802 -45.77818,-52.81112 l -14.129,2.07103 10,-8.49322 c 16.35523,-13.89084 27.01436,-18.14334 46.60962,-18.59508 29.51505,-0.68043 39.20487,12.16585 43.40899,57.54945 4.2869,46.27734 -5.2487,64.14472 -55.37969,103.76789 -23.64559,18.68931 -24.94113,24.67404 -14.66993,67.76758 7.9031,33.15797 28.36435,126.57986 28.36435,129.50583 0,1.34197 -35.67363,21.86217 -38.00663,21.86217 -0.79252,0 -3.04285,-7.875 -5.00073,-17.5 z"
       id="path3201"
       inkscape:connector-curvature="0" />
    <path
       style="fill:#ff2a2a"
       d=""
       id="path3203"
       inkscape:connector-curvature="0" />
    <path
       style="fill:#ff2a2a"
       d="m 346.66667,874.98594 c 0,-25.17861 35.67849,-64.75341 66.66666,-73.94706 8.11841,-2.40859 8.06254,-2.18306 -2.16629,8.74438 -14.03423,14.99276 -24.50037,35.486 -24.50037,47.97298 0,9.04232 -2.07046,11.20376 -18.40718,19.21603 -10.12395,4.96525 -19.12395,9.02773 -20,9.02773 -0.87605,0 -1.59282,-4.95633 -1.59282,-11.01406 z"
       id="path3205"
       inkscape:connector-curvature="0" />
    <path
       style="fill:#ff2a2a"
       d="M 616.32628,751.80643 C 604.51671,743.95835 590,719.61245 590,707.65476 c 0,-5.09447 4.88061,-9.32632 18.40718,-15.96037 10.12395,-4.96525 18.95701,-9.02772 19.62903,-9.02772 0.67202,0 2.21277,5.28207 3.4239,11.73793 2.41249,12.8597 18.53314,33.41938 28.74518,36.66056 3.55376,1.12792 6.46138,3.09923 6.46138,4.38069 0,2.14642 -34.15588,23.88748 -37.52796,23.88748 -0.81739,0 -6.58298,-3.3871 -12.81243,-7.5269 z"
       id="path3207"
       inkscape:connector-curvature="0" />
    <path
       style="fill:#ff2a2a"
       d="m 703.3761,716.83333 c -16.2518,-82.77302 -30.02136,-107.53156 -64.53939,-116.04588 -8.12955,-2.00526 -9.31479,-1.4388 -8.23354,3.93504 0.95278,4.73531 -3.48422,8.93894 -18.06078,17.11084 -10.62812,5.95834 -20.04803,10.83334 -20.93313,10.83334 -0.88509,0 -1.60926,-4.57163 -1.60926,-10.15917 0,-12.36286 9.33472,-21.68307 35.79951,-35.74387 25.77255,-13.69301 39.86253,-15.99863 56.16164,-9.19002 29.45388,12.30374 43.07955,34.8139 55.97375,92.47089 4.80247,21.47447 8.73177,41.03699 8.73177,43.47227 0,3.47736 -32.26718,22.48323 -38.17086,22.48323 -0.74607,0 -3.04994,-8.625 -5.11971,-19.16667 z"
       id="path3209"
       inkscape:connector-curvature="0" />
    <path
       style="fill:#ff2a2a"
       d="m 722.63155,840.13137 c -4.288,-8.97014 -5.0413,-9.16734 -42.66498,-11.16873 -42.14734,-2.24203 -70.00787,-9.01001 -84.29223,-20.47659 L 586.34869,801 l 20.06136,-11.0053 20.06136,-11.00531 9.2643,6.73969 c 14.07741,10.24118 45.58425,16.93759 79.69199,16.93759 16.88155,0 33.12188,0.93177 36.08963,2.0706 4.66225,1.78908 15.14934,17.51407 15.14934,22.71588 0,0.98132 -8.92577,6.28993 -19.83503,11.79691 l -19.83503,10.01269 -4.36506,-9.13138 z"
       id="path3211"
       inkscape:connector-curvature="0" />
    <path
       style="fill:#ff2a2a"
       d=""
       id="path3213"
       inkscape:connector-curvature="0" />
    <path
       style="fill:#ff2a2a"
       d="M 828.60992,688.24628 C 821.89884,681.53521 820,676.32241 820,664.60989 c 0,-18.96736 -11.55081,-50.31667 -20.9704,-56.91441 -3.9488,-2.76585 -11.72088,-5.06916 -17.27129,-5.11848 l -10.09164,-0.0897 11.66666,-9.88585 c 16.29553,-13.80815 33.44623,-18.74423 46.43471,-13.36423 13.28828,5.50419 26.61279,32.5799 30.17713,61.3206 1.47311,11.87835 3.67661,23.21215 4.89667,25.18624 1.23077,1.99143 12.2621,3.58924 24.78019,3.58924 23.55488,0 43.58041,-6.40865 84.37692,-27.00267 10.52935,-5.31519 21.35199,-9.66399 24.05031,-9.66399 8.01044,0 15.28404,13.8138 15.28404,29.02703 0,14.02419 -0.262,14.34258 -19.99997,24.3063 l -20,10.09597 0,-13.10869 c 0,-29.20819 -4.65031,-29.75924 -54.72646,-6.48497 -29.43251,13.67958 -41.45687,17.49263 -59.16362,18.76144 -20.51514,1.47004 -22.88524,0.93063 -30.83333,-7.01747 l 0,0 z"
       id="path3215"
       inkscape:connector-curvature="0" />
    <path
       style="fill:#ff2a2a"
       d="m 817.56984,849.94783 c 1.48607,-28.16964 3.88051,-41.10597 10.95138,-59.16667 8.80241,-22.48344 9.59265,-23.36413 28.94533,-32.25833 16.69691,-7.67364 19.51054,-8.20959 17.49942,-3.33333 -12.36077,29.97052 -15.89367,45.71405 -17.46681,77.8366 l -1.73166,35.35944 -17.9576,8.80723 C 827.93322,882.03675 818.91082,886 817.76011,886 c -1.1507,0 -1.23633,-16.22348 -0.19027,-36.05217 z"
       id="path3217"
       inkscape:connector-curvature="0" />
    <path
       style="fill:#ff2a2a"
       d="m 1133.2173,701.94039 c -2.0797,-7.85055 -7.7793,-25.38233 -12.6659,-38.95952 -12.4458,-34.58007 -18.0324,-38.1391 -62.4474,-39.78322 l -34.9523,-1.29383 17.5908,-13.26278 17.5908,-13.26277 33.3334,1.42329 c 37.5699,1.60419 51.9486,6.96224 59.8888,22.3167 6.32,12.22173 17.1177,42.12196 19.9394,55.21507 1.1852,5.5 2.8635,12.40017 3.7294,15.33371 1.1233,3.80535 -4.1279,8.37304 -18.3257,15.9404 l -19.9002,10.60668 -3.7811,-14.27373 z"
       id="path3219"
       inkscape:connector-curvature="0" />
    <path
       style="fill:#ff2a2a"
       d="m 1116.6667,934.84546 c 0,-0.635 2.3663,-5.89797 5.2585,-11.69549 10.6333,-21.31501 -1.726,-39.40752 -42.1022,-61.63251 -33.3178,-18.33975 -38.1563,-24.88543 -38.1563,-51.61934 0,-13.75349 2.3832,-28.4096 6.2493,-38.43219 5.5537,-14.39739 8.2544,-17.08746 24.2617,-24.16667 9.9068,-4.38126 18.7398,-7.96593 19.6287,-7.96593 0.889,0 -0.7099,5.56771 -3.5532,12.37268 -2.8433,6.80497 -6.0477,20.77319 -7.1208,31.04049 -2.6131,25.00056 3.126,35.27016 27.7226,49.60717 37.1284,21.64162 44.7702,27.29841 51.2627,37.9464 12.9908,21.30591 7.2825,35.29561 -22.0616,54.06675 -17.3332,11.08796 -21.3894,13.07508 -21.3894,10.47864 z"
       id="path3221"
       inkscape:connector-curvature="0" />
    <path
       style="fill:#ff2a2a"
       d=""
       id="path3223"
       inkscape:connector-curvature="0" />
    <path
       style="fill:#ff2a2a"
       d="m 1226.6667,552.41026 c 0,-10.14054 -17.6674,-26.41026 -28.679,-26.41026 -8.5869,0 -8.0159,-0.8773 8.679,-13.33333 9.8289,-7.33334 19.8979,-13.33334 22.3757,-13.33334 10.6523,0 27.5643,10.21519 32.4029,19.57188 8.4282,16.29831 6.5948,21.28434 -11.4951,31.26146 -19.9244,10.98895 -23.2835,11.31263 -23.2835,2.24359 z"
       id="path3225"
       inkscape:connector-curvature="0" />
    <path
       style="fill:#ff2a2a"
       d="m 1241.4077,907.45842 c -1.2253,-6.5312 -1.2269,-18.9062 -0,-27.5 10.1713,-71.45283 14.4791,-167.63847 8.7373,-195.08999 -5.8957,-28.1883 -12.4399,-33.46513 -38.871,-31.34349 l -21.2181,1.70318 15.6193,-11.92624 c 17.823,-13.60884 45.124,-19.53297 63.1903,-13.71182 19.1854,6.18176 22.8049,19.63165 22.8049,84.74327 0,31.16667 -2.1376,76.16667 -4.7501,100 -2.6125,23.83334 -4.8625,52.76511 -5,64.29283 l -0.2499,20.9595 -16.6667,9.81699 c -9.1667,5.39935 -17.7237,9.84258 -19.0156,9.87384 -1.2919,0.0313 -3.3515,-5.28687 -4.5767,-11.81807 l 0,0 z"
       id="path3227"
       inkscape:connector-curvature="0" />
    <path
       style="fill:#ff2a2a"
       d="m 1500,716.01049 c 0,-2.18975 3.2543,-8.55159 7.2318,-14.13744 20.3335,-28.55579 29.4654,-75.36636 17.1124,-87.71934 -8.4442,-8.44418 -41.5641,-4.2348 -94.4548,12.00473 -24.167,7.42024 -45.6328,12.9271 -47.7017,12.23747 -6.6227,-2.20757 44.8718,-25.22811 84.479,-37.76622 47.2061,-14.94365 88.5641,-18.92265 98.0532,-9.43358 4.8526,4.85254 5.7299,10.15698 4.6987,28.40721 -1.0754,19.03216 -3.823,27.42404 -18.0903,55.25193 -11.7042,22.8287 -18.426,32.53546 -22.0932,31.9044 -2.899,-0.49887 -10.6629,2.2743 -17.253,6.16258 -7.5645,4.46316 -11.9821,5.60175 -11.9821,3.08826 z"
       id="path3229"
       inkscape:connector-curvature="0" />
    <path
       style="fill:#ff2a2a"
       d="m 1366.6667,944.64602 c 0,-0.74469 7.5034,-6.74469 16.6743,-13.33334 12.0188,-8.63459 20.1624,-11.98454 29.1667,-11.99794 6.8708,-0.0102 17.7423,-1.4142 24.159,-3.11994 6.4166,-1.70575 17.7972,-4.68939 25.2902,-6.63031 16.2651,-4.21321 21.3764,-13.09896 21.3764,-37.16173 0,-24.15819 -6.5775,-36.40977 -30.4344,-56.68841 -11.6777,-9.92623 -30.6072,-27.34716 -42.0656,-38.71318 -23.6832,-23.49245 -25.7954,-31.97937 -14.0151,-56.3141 6.6417,-13.72 8.108,-14.74219 38.6265,-26.92699 2.5294,-1.00988 2.1297,3.49845 -1.2093,13.64088 -2.9188,8.86613 -4.0388,18.92854 -2.7003,24.26138 2.6003,10.36071 23.4778,31.60716 55.0317,56.00433 30.2856,23.41653 37.3059,36.67865 35.9733,67.95714 -1.013,23.7761 -1.4781,24.99459 -13.5085,35.3941 -11.3585,9.81861 -48.5102,31.64876 -53.8616,31.64876 -1.2266,0 -1.1598,-1.73177 0.1483,-3.84836 1.4854,-2.40347 0.9131,-2.94275 -1.5243,-1.43634 -2.1465,1.32661 -3.1473,3.63429 -2.2241,5.12817 2.2148,3.58361 -10.7394,8.65568 -42.9364,16.8112 -24.6789,6.25116 -41.9668,8.44463 -41.9668,5.32468 z"
       id="path3231"
       inkscape:connector-curvature="0" />
    <path
       style="fill:#ff2a2a"
       d="m 1714.3562,883.37801 c 21.9097,-24.20988 19.5134,-84.45016 -4.1057,-103.21634 -2.8878,-2.29441 -26.8029,-18.79441 -53.1446,-36.66667 -64.5988,-43.82867 -70.0269,-50.82011 -58.3945,-75.21341 3.9736,-8.33276 9.7864,-13.14038 22.2588,-18.40983 9.2844,-3.92255 17.3382,-6.67446 17.8973,-6.11536 0.5591,0.5591 -0.755,5.71004 -2.9203,11.44651 -5.4528,14.44614 0.8322,25.07994 24.0041,40.61344 102.2119,68.51874 102.3358,68.62882 107.1156,95.18365 5.8942,32.74562 2.7331,52.12293 -11.479,70.36473 -7.0373,9.03279 -18.042,18.29475 -25.9365,21.82924 -17.2853,7.73883 -22.1855,7.79779 -15.2952,0.18403 l 0,10e-6 z"
       id="path3233"
       inkscape:connector-curvature="0" />
    <path
       style="fill:#ff2a2a"
       d="m 1326.9093,866.90719 c -5.6334,-6.83438 -10.2248,-13.20938 -10.2031,-14.16667 0.022,-0.95729 8.8669,-6.58855 19.6559,-12.51391 l 19.6164,-10.7734 5.9269,9.10673 c 3.2599,5.0087 8.2874,10.85908 11.1722,13.00086 2.8849,2.14177 4.4976,4.52369 3.5838,5.29315 -7.4414,6.26614 -33.5405,22.47938 -36.186,22.47938 -1.8278,0 -7.9326,-5.59176 -13.5661,-12.42614 z"
       id="path3235"
       inkscape:connector-curvature="0" />
    <path
       style="fill:#ff2a2a"
       d="m 1726.1236,579.74219 c -0.7124,-12.60846 -3.2684,-25.30188 -5.6799,-28.20761 -2.4116,-2.90573 -25.6229,-15.68527 -51.5808,-28.39898 -53.3625,-26.13599 -73.8207,-42.13665 -85.3511,-66.75454 -4.3866,-9.36558 -7.3463,-17.51919 -6.5771,-18.11912 0.7693,-0.59993 9.6846,-5.67577 19.8119,-11.27965 l 18.4132,-10.18886 9.1992,19.58015 c 11.7106,24.9258 31.9408,40.63139 79.1341,61.43547 58.306,25.70281 63.1736,30.78715 63.1736,65.98673 l 0,20.81543 -18.4072,9.02773 c -10.124,4.96525 -18.9547,9.02773 -19.6239,9.02773 -0.6691,0 -1.7995,-10.31602 -2.512,-22.92448 z"
       id="path3237"
       inkscape:connector-curvature="0" />
    <path
       style="fill:#ff2a2a"
       d="m 1686.6667,406.55696 c 0,-1.32381 2.0629,-5.36568 4.5843,-8.98194 2.5213,-3.61626 9.2713,-17.60708 15,-31.09072 9.2349,-21.73641 10.3853,-27.97162 10.1474,-55 -0.1475,-16.76636 -2.0225,-37.2343 -4.1667,-45.4843 -3.6906,-14.20058 -4.5827,-15.05622 -16.7381,-16.05481 -16.5127,-1.35654 -53.2787,9.85747 -85.6028,26.1097 -24.3935,12.26482 -43.2321,28.99967 -50.4308,44.79912 -3.0975,6.79836 -38.4774,27.23968 -41.652,24.06513 -0.7688,-0.76884 3.5635,-7.96517 9.6274,-15.99185 24.9541,-33.03151 140.5598,-96.01455 191.8409,-104.51672 28.6315,-4.74696 37.3403,10.61884 37.3718,65.93881 0.016,28.61558 -1.1799,35.49909 -9.6122,55.31465 -15.9481,37.47752 -24.3054,48.31238 -43.3789,56.23899 -9.3447,3.88347 -16.9903,5.97774 -16.9903,4.65394 z"
       id="path3239"
       inkscape:connector-curvature="0" />
  </g>
</svg>
