<?xml version="1.0" encoding="UTF-8" standalone="no"?>
<!-- Created with Inkscape (http://www.inkscape.org/) -->

<svg
   xmlns:dc="http://purl.org/dc/elements/1.1/"
   xmlns:cc="http://creativecommons.org/ns#"
   xmlns:rdf="http://www.w3.org/1999/02/22-rdf-syntax-ns#"
   xmlns:svg="http://www.w3.org/2000/svg"
   xmlns="http://www.w3.org/2000/svg"
   xmlns:xlink="http://www.w3.org/1999/xlink"
   xmlns:sodipodi="http://sodipodi.sourceforge.net/DTD/sodipodi-0.dtd"
   xmlns:inkscape="http://www.inkscape.org/namespaces/inkscape"
   width="1024px"
   height="768px"
   id="svg3045"
   version="1.1"
   inkscape:version="0.48.2 r9819"
   sodipodi:docname="food.svg">
  <defs
     id="defs3047">
    <linearGradient
       inkscape:collect="always"
       id="linearGradient3949">
      <stop
         style="stop-color:#1a1a1a;stop-opacity:1;"
         offset="0"
         id="stop3951" />
      <stop
         style="stop-color:#1a1a1a;stop-opacity:0;"
         offset="1"
         id="stop3953" />
    </linearGradient>
    <linearGradient
       inkscape:collect="always"
       id="linearGradient3941">
      <stop
         style="stop-color:#1a1a1a;stop-opacity:1;"
         offset="0"
         id="stop3943" />
      <stop
         style="stop-color:#1a1a1a;stop-opacity:0;"
         offset="1"
         id="stop3945" />
    </linearGradient>
    <linearGradient
       inkscape:collect="always"
       id="linearGradient3933">
      <stop
         style="stop-color:#1a1a1a;stop-opacity:1;"
         offset="0"
         id="stop3935" />
      <stop
         style="stop-color:#1a1a1a;stop-opacity:0;"
         offset="1"
         id="stop3937" />
    </linearGradient>
    <linearGradient
       inkscape:collect="always"
       id="linearGradient3925">
      <stop
         style="stop-color:#1a1a1a;stop-opacity:1;"
         offset="0"
         id="stop3927" />
      <stop
         style="stop-color:#1a1a1a;stop-opacity:0;"
         offset="1"
         id="stop3929" />
    </linearGradient>
    <linearGradient
       inkscape:collect="always"
       id="linearGradient3917">
      <stop
         style="stop-color:#1a1a1a;stop-opacity:1;"
         offset="0"
         id="stop3919" />
      <stop
         style="stop-color:#1a1a1a;stop-opacity:0;"
         offset="1"
         id="stop3921" />
    </linearGradient>
    <linearGradient
       inkscape:collect="always"
       id="linearGradient3909">
      <stop
         style="stop-color:#1a1a1a;stop-opacity:1;"
         offset="0"
         id="stop3911" />
      <stop
         style="stop-color:#1a1a1a;stop-opacity:0;"
         offset="1"
         id="stop3913" />
    </linearGradient>
    <linearGradient
       inkscape:collect="always"
       id="linearGradient3901">
      <stop
         style="stop-color:#1a1a1a;stop-opacity:1;"
         offset="0"
         id="stop3903" />
      <stop
         style="stop-color:#1a1a1a;stop-opacity:0;"
         offset="1"
         id="stop3905" />
    </linearGradient>
    <linearGradient
       inkscape:collect="always"
       id="linearGradient3893">
      <stop
         style="stop-color:#1a1a1a;stop-opacity:1;"
         offset="0"
         id="stop3895" />
      <stop
         style="stop-color:#1a1a1a;stop-opacity:0;"
         offset="1"
         id="stop3897" />
    </linearGradient>
    <linearGradient
       inkscape:collect="always"
       id="linearGradient3885">
      <stop
         style="stop-color:#1a1a1a;stop-opacity:1;"
         offset="0"
         id="stop3887" />
      <stop
         style="stop-color:#1a1a1a;stop-opacity:0;"
         offset="1"
         id="stop3889" />
    </linearGradient>
    <linearGradient
       inkscape:collect="always"
       id="linearGradient3877">
      <stop
         style="stop-color:#1a1a1a;stop-opacity:1;"
         offset="0"
         id="stop3879" />
      <stop
         style="stop-color:#1a1a1a;stop-opacity:0;"
         offset="1"
         id="stop3881" />
    </linearGradient>
    <linearGradient
       inkscape:collect="always"
       id="linearGradient3869">
      <stop
         style="stop-color:#1a1a1a;stop-opacity:1;"
         offset="0"
         id="stop3871" />
      <stop
         style="stop-color:#1a1a1a;stop-opacity:0;"
         offset="1"
         id="stop3873" />
    </linearGradient>
    <linearGradient
       inkscape:collect="always"
       id="linearGradient3861">
      <stop
         style="stop-color:#1a1a1a;stop-opacity:1;"
         offset="0"
         id="stop3863" />
      <stop
         style="stop-color:#1a1a1a;stop-opacity:0;"
         offset="1"
         id="stop3865" />
    </linearGradient>
    <linearGradient
       inkscape:collect="always"
       xlink:href="#linearGradient3861"
       id="linearGradient3867"
       x1="511.68084"
       y1="461.85871"
       x2="711.15704"
       y2="461.85871"
       gradientUnits="userSpaceOnUse" />
    <linearGradient
       inkscape:collect="always"
       xlink:href="#linearGradient3869"
       id="linearGradient3875"
       x1="784.71434"
       y1="404.44495"
       x2="975.38789"
       y2="404.44495"
       gradientUnits="userSpaceOnUse" />
    <linearGradient
       inkscape:collect="always"
       xlink:href="#linearGradient3877"
       id="linearGradient3883"
       x1="730.37304"
       y1="431.58959"
       x2="838.4427"
       y2="431.58959"
       gradientUnits="userSpaceOnUse" />
    <linearGradient
       inkscape:collect="always"
       xlink:href="#linearGradient3885"
       id="linearGradient3891"
       x1="736.74223"
       y1="568.33854"
       x2="813.1764"
       y2="568.33854"
       gradientUnits="userSpaceOnUse" />
    <linearGradient
       inkscape:collect="always"
       xlink:href="#linearGradient3893"
       id="linearGradient3899"
       x1="783.67834"
       y1="681.08792"
       x2="887.50392"
       y2="681.08792"
       gradientUnits="userSpaceOnUse" />
    <linearGradient
       inkscape:collect="always"
       xlink:href="#linearGradient3901"
       id="linearGradient3907"
       x1="540.93684"
       y1="484.83297"
       x2="605.4621"
       y2="484.83297"
       gradientUnits="userSpaceOnUse" />
    <linearGradient
       inkscape:collect="always"
       xlink:href="#linearGradient3909"
       id="linearGradient3915"
       x1="331.56697"
       y1="475.01606"
       x2="517.08398"
       y2="475.01606"
       gradientUnits="userSpaceOnUse" />
    <linearGradient
       inkscape:collect="always"
       xlink:href="#linearGradient3917"
       id="linearGradient3923"
       x1="366.79635"
       y1="505.58161"
       x2="418.96235"
       y2="505.58161"
       gradientUnits="userSpaceOnUse" />
    <linearGradient
       inkscape:collect="always"
       xlink:href="#linearGradient3925"
       id="linearGradient3931"
       x1="136.76614"
       y1="409.60892"
       x2="300.32862"
       y2="409.60892"
       gradientUnits="userSpaceOnUse" />
    <linearGradient
       inkscape:collect="always"
       xlink:href="#linearGradient3933"
       id="linearGradient3939"
       x1="139.12032"
       y1="581.24016"
       x2="183.2222"
       y2="581.24016"
       gradientUnits="userSpaceOnUse" />
    <linearGradient
       inkscape:collect="always"
       xlink:href="#linearGradient3941"
       id="linearGradient3947"
       x1="272.62712"
       y1="489.36591"
       x2="307.25097"
       y2="489.36591"
       gradientUnits="userSpaceOnUse" />
    <linearGradient
       inkscape:collect="always"
       xlink:href="#linearGradient3949"
       id="linearGradient3955"
       x1="71.631345"
       y1="231.09445"
       x2="321.19311"
       y2="231.09445"
       gradientUnits="userSpaceOnUse" />
  </defs>
  <sodipodi:namedview
     id="base"
     pagecolor="#b492c6"
     bordercolor="#666666"
     borderopacity="1.0"
     inkscape:pageopacity="0.81960784"
     inkscape:pageshadow="2"
     inkscape:zoom="0.5"
     inkscape:cx="200"
     inkscape:cy="382"
     inkscape:current-layer="layer1"
     inkscape:document-units="px"
     showgrid="false"
     inkscape:window-width="1280"
     inkscape:window-height="738"
     inkscape:window-x="-8"
     inkscape:window-y="-8"
     inkscape:window-maximized="1" />
  <metadata
     id="metadata3050">
    <rdf:RDF>
      <cc:Work
         rdf:about="">
        <dc:format>image/svg+xml</dc:format>
        <dc:type
           rdf:resource="http://purl.org/dc/dcmitype/StillImage" />
      </cc:Work>
    </rdf:RDF>
  </metadata>
  <g
     id="layer1"
     inkscape:label="Layer 1"
     inkscape:groupmode="layer">
    <path
       style="fill:url(#linearGradient3955)"
       id="path3053"
       d="m 71.631385,268.44419 c 16.168637,-10.17985 56.579145,-32.44957 8.312755,-5.09805 -0.89173,0.50532 1.740659,-1.0827 2.61097,-1.62409 3.257005,-2.02604 1.64152,-1.03102 4.792011,-2.95396 5.159457,-3.34744 10.254186,-6.79087 15.114349,-10.56327 7.36817,-6.15121 15.06146,-11.90601 22.91182,-17.42425 16.986,-11.72508 35.14366,-21.59041 52.93462,-31.99929 6.23193,-3.64609 -12.52265,7.19072 -18.78398,10.78608 16.92137,-9.98475 -5.50391,3.22395 35.41745,-20.49973 6.45325,-3.7412 -25.86572,14.8735 -19.39793,11.15748 12.96605,-7.44956 25.59354,-14.68657 38.56514,-21.85886 6.02326,-3.08956 3.02571,-1.51451 8.82725,-4.63437 1.36629,-0.73474 5.44023,-2.98351 4.09907,-2.20384 -6.93399,4.03106 -27.78595,16.03689 -20.87937,11.95904 13.09696,-7.73286 55.27891,-31.7447 7.96055,-4.75196 13.73783,-9.81322 28.66002,-17.68555 43.28278,-26.09836 0.85864,-0.49479 3.43751,-1.97403 2.57592,-1.48439 -7.56216,4.29761 -15.07164,8.68882 -22.67767,12.90828 -0.88749,0.49234 1.63604,-1.20783 2.51159,-1.7211 9.32432,-5.46614 18.66387,-10.90805 28.08086,-16.21293 2.06605,-1.16387 4.30776,-1.98875 6.40763,-3.09043 5.46802,-2.89068 11.07557,-5.06747 16.7801,-7.3708 4.57873,-1.50912 9.36827,-2.01222 14.15452,-2.27615 5.06675,-0.68747 7.69593,2.52373 10.27072,6.3652 1.94126,3.68352 3.11557,7.74748 4.30532,11.73139 1.1389,4.88653 1.15996,9.93201 1.26954,14.92137 0.0906,4.78855 0.10386,9.57805 0.11011,14.36731 0.0135,4.99106 0.048,9.95695 -0.53658,14.9189 -0.98452,6.7617 -3.90609,12.969 -6.17396,19.34939 -2.2021,6.80539 -4.83383,13.46992 -6.90756,20.31494 -2.12452,7.36612 -4.678,14.6171 -7.3778,21.79185 -2.20577,5.90291 -4.10503,11.91555 -5.98424,17.92888 -1.62333,5.01667 -2.42688,10.23499 -3.83059,15.31077 -1.67316,4.42428 -2.34435,9.06311 -3.0934,13.69898 -1.08703,3.96555 -2.34673,7.84937 -3.14276,11.89005 0,0 -26.51599,12.91468 -26.51599,12.91468 l 0,0 c 0.68112,-4.0601 1.54632,-8.07208 3.12994,-11.89151 0.97747,-4.67845 1.06142,-9.54619 2.97069,-14.01917 1.71167,-5.02371 2.31397,-10.28342 3.86306,-15.35152 1.94849,-6.09752 3.92668,-12.17929 6.10136,-18.20162 2.86399,-7.02356 5.18323,-14.27927 7.4714,-21.50592 1.77589,-6.97947 4.68795,-13.60453 6.82374,-20.48093 2.11978,-6.22404 4.98472,-12.22392 6.2282,-18.7103 0.70382,-4.83745 0.78316,-9.65466 0.63416,-14.54308 0.0255,-4.78914 0.0732,-9.57849 0.0311,-14.36766 -0.0819,-4.72658 -0.12561,-9.50156 -1.08533,-14.14896 -1.02329,-3.70981 -2.08691,-7.48941 -3.77214,-10.94461 -2.60564,-3.71376 -4.02924,-4.32736 -8.57056,-3.79453 -4.63761,0.42264 -9.25124,1.16572 -13.58772,2.94641 -5.64085,2.09346 -10.97574,4.82376 -16.3868,7.44401 -1.10896,0.55166 -2.21986,1.09944 -3.32687,1.65499 -1.0206,0.51219 -4.03707,2.13239 -3.0559,1.54822 49.19582,-29.29019 4.01799,-1.45309 -10.54072,6.5445 45.23132,-26.25748 16.31542,-10.12268 6.67435,-2.86523 -9.53581,5.59212 -19.16021,11.03582 -28.60742,16.77635 -6.79288,4.12765 27.52297,-15.91785 20.6431,-11.93689 -13.82351,7.99882 -27.45998,16.25357 -41.69212,23.49003 -0.14351,0.0781 -9.25005,5.03068 -9.21816,5.01178 7.01235,-4.15647 60.75431,-35.16639 -9.71524,5.57082 -4.535,2.6216 32.58739,-18.91611 13.61999,-7.83876 -10.05847,5.83112 -20.1103,11.67374 -30.17543,17.49337 -6.17239,3.56886 12.29048,-7.23227 18.49722,-10.74107 2.03087,-1.14809 -3.98583,2.42569 -5.96704,3.65749 -1.529,0.95065 -9.84315,6.20869 -11.50777,7.28569 -1.65244,1.06913 -3.28596,2.16722 -4.92893,3.25083 -7.74886,5.38545 -15.37184,10.9903 -22.58038,17.08013 -4.71888,3.94375 -9.78498,7.3177 -14.76405,10.90275 -2.57454,1.4251 -5.01774,3.0297 -7.55619,4.51769 -9.280643,5.44014 -18.646691,10.73652 -27.853023,16.3015 -7.314509,4.42143 14.765837,-8.61269 22.176843,-12.8704 0.8055,-0.46277 -1.5724,0.98973 -2.358601,1.48459 0,0 -27.608044,10.80225 -27.608044,10.80225 z"
       inkscape:connector-curvature="0" />
    <path
       style="fill:url(#linearGradient3931)"
       id="path3055"
       d="m 163.23392,348.69239 c -0.17472,5.0871 -0.11584,10.17916 -0.0938,15.26834 -0.0361,5.61251 2.4291,10.22363 5.19873,14.93109 4.07006,6.29957 9.02445,11.96849 14.53348,17.03981 3.40403,3.16617 6.84035,6.29005 10.40753,9.2778 8.98006,7.11495 19.29033,12.45983 29.42808,17.73355 18.07496,9.11888 37.00318,16.354 55.78301,23.85178 14.83685,5.66873 7.55697,2.91253 21.83767,8.27373 0,0 -23.00301,15.45697 -23.00301,15.45697 l 0,0 c -14.08789,-5.53293 -6.87138,-2.72217 -21.6518,-8.42643 -19.09792,-7.41299 -38.38596,-14.4485 -56.78104,-23.52536 -10.48303,-5.33116 -21.024,-10.78232 -30.54438,-17.72864 -3.72632,-2.93532 -7.15695,-6.17237 -10.532,-9.50084 -5.41995,-5.48986 -10.39727,-11.40779 -14.75198,-17.78331 -3.18117,-5.07244 -6.06165,-10.05581 -6.20447,-16.20973 0.0218,-5.05727 0.0825,-10.1176 -0.0938,-15.17272 0,0 26.46784,-13.48604 26.46784,-13.48604 z"
       inkscape:connector-curvature="0" />
    <path
       style="fill:url(#linearGradient3939)"
       id="path3057"
       d="m 165.3582,478.47571 c 0.66064,6.15696 2.51829,12.11655 4.17813,18.0625 1.77028,5.69175 2.73199,11.57807 3.30372,17.49766 1.05034,5.93018 2.47326,11.76238 3.25207,17.74396 0.86743,6.21028 0.74723,12.48905 1.1743,18.72886 0.79494,9.29834 1.99755,18.55686 3.35982,27.7875 1.16077,7.62629 1.96328,15.29165 2.29911,22.99729 0.17127,6.20943 0.20932,12.42486 0.19987,18.63701 0.0131,5.34484 -0.002,10.68951 0.0178,16.03435 0.26195,4.73454 -0.1563,9.39663 -0.80975,14.0775 -0.41515,4.78532 -1.45389,9.46921 -2.22189,14.20099 -0.34364,2.16233 -0.51548,4.34417 -0.68095,6.52527 0,0 -26.42746,13.23601 -26.42746,13.23601 l 0,0 c 0.14226,-2.26088 0.28918,-4.52279 0.60829,-6.76758 0.70001,-4.74377 1.8815,-9.38372 2.24374,-14.16968 0.65705,-4.56536 1.30472,-9.08258 1.00914,-13.71559 0.0293,-5.35902 0.0301,-10.71798 0.0641,-16.07695 0.005,-6.18811 0.0874,-12.37659 -0.0914,-18.5635 -0.24751,-7.65385 -0.74621,-15.3 -1.84665,-22.88491 -1.31469,-9.25007 -2.55878,-18.51029 -3.75639,-27.77368 -0.62587,-6.19505 -0.32038,-12.44718 -1.07856,-18.63945 -0.75411,-6.02055 -2.15992,-11.8677 -3.47891,-17.77375 -0.39347,-5.77606 -1.16138,-11.52834 -2.87602,-17.07924 -1.72875,-6.00309 -3.43638,-12.04525 -4.67999,-18.16518 0,0 26.23793,-13.91939 26.23793,-13.91939 z"
       inkscape:connector-curvature="0" />
    <path
       style="fill:url(#linearGradient3915)"
       id="path3059"
       d="m 331.56697,396.35531 c 7.15619,-8.24778 14.81839,-16.01635 22.67854,-23.58743 10.17394,-9.4446 21.29531,-17.74607 32.74965,-25.55334 15.56753,-10.48211 31.7773,-20.3968 49.44512,-26.86186 6.6286,-2.75827 13.67242,-3.97883 20.77046,-4.6954 5.38935,-0.62641 10.6236,-0.52391 15.72863,1.37827 6.46687,2.82529 12.00689,7.44625 17.17804,12.17734 5.0027,4.53721 8.61094,10.14948 11.83269,16.01232 3.61198,7.13778 5.74678,14.72441 7.50839,22.48002 2.46167,10.29371 4.47922,20.67935 6.00152,31.15157 1.15072,8.10765 1.41159,16.29262 1.5963,24.46694 0.0467,7.3726 0.0331,14.74626 -0.0318,22.11888 0.23213,8.71206 -0.9155,17.31345 -3.05096,25.738 -1.77981,7.33615 -4.21505,14.47399 -6.40491,21.68934 -1.57129,6.97301 -3.93672,13.71841 -5.87514,20.58906 -2.60563,7.73726 -5.17273,15.48636 -8.2753,23.04035 -3.48309,8.30104 -6.69431,16.73697 -9.49206,25.29551 -2.03187,5.67481 -4.04074,11.36291 -6.23031,16.97907 -2.03348,5.45599 -4.29562,10.81348 -6.87521,16.03208 -2.19851,4.65107 -5.55395,8.44639 -9.27381,11.92347 -12.43846,9.43485 -26.53079,16.67043 -40.79112,22.99383 -4.59819,1.60267 -9.31961,2.96354 -14.07892,4.02208 -4.52066,0.80349 -9.13988,0.86326 -13.71997,0.94462 -2.91079,0.0273 -1.46437,0.0177 -4.33924,0.0289 0,0 23.90531,-17.39209 23.90531,-17.39209 l 0,0 c 2.84458,-0.0261 1.41457,-0.007 4.29002,-0.0589 4.47973,-0.14086 8.9942,-0.325 13.35395,-1.4636 4.59966,-1.22594 9.2646,-2.35235 13.60261,-4.35543 2.14012,-1.00397 3.37113,-1.57582 5.51928,-2.60708 0.92915,-0.44605 3.66731,-1.87704 2.7823,-1.34882 -40.41299,24.12081 -26.55781,15.60211 -17.80476,10.30813 3.84136,-3.06873 7.23207,-6.5738 9.72663,-10.84245 2.56779,-5.19637 5.17984,-10.37297 7.04209,-15.87635 2.36373,-5.53962 4.0113,-11.35144 6.46058,-16.86053 2.84596,-8.62448 6.15572,-17.10519 9.49595,-25.54593 3.13484,-7.41977 5.58491,-15.06906 8.28311,-22.65517 1.92436,-6.87336 4.34609,-13.60995 5.78345,-20.61283 2.19908,-7.2429 4.83123,-14.3489 6.64307,-21.71001 2.37992,-8.13437 3.53057,-16.52283 3.31938,-25.01182 -0.0371,-7.34507 0.0216,-14.69004 -0.0337,-22.03504 -0.0349,-8.1118 -0.22889,-16.2336 -1.15239,-24.30081 -1.29944,-10.41259 -3.35396,-20.70074 -5.95811,-30.86644 -1.7712,-7.46791 -3.87459,-14.76593 -7.34146,-21.66009 -3.05998,-5.59673 -6.58468,-10.85834 -11.35175,-15.17849 -4.89807,-4.48248 -10.17564,-8.88006 -16.55489,-11.02633 -4.95671,-1.15497 -9.94701,-1.05132 -14.98867,-0.4285 -6.93471,0.86631 -13.72068,2.44361 -20.17993,5.17979 -3.89039,1.56133 -3.39261,1.32156 -7.30508,3.05854 -1.33525,0.5928 -5.23301,2.57886 -3.99368,1.80532 39.62728,-24.73391 20.24906,-11.93477 11.60902,-6.51241 -11.53094,7.69745 -22.83289,15.75293 -33.06481,25.14897 -7.63024,7.30628 -15.15317,14.73843 -21.87963,22.90331 0,0 -27.25841,11.58143 -27.25841,11.58143 z"
       inkscape:connector-curvature="0" />
    <path
       style="fill:url(#linearGradient3923)"
       id="path3061"
       d="m 406.56284,455.64803 c -4.33796,6.72149 -6.97585,14.26626 -9.51943,21.79047 -1.88819,5.1073 -3.0724,10.38469 -3.65306,15.78619 -0.30402,5.20184 -0.51887,10.44586 -0.13873,15.64758 0.75044,5.60925 3.75521,10.51726 6.68029,15.2482 2.03384,4.55535 4.57361,7.63659 8.61398,10.43434 2.99942,2.45164 6.6959,3.43243 10.41646,4.16315 0,0 -24.27542,16.79723 -24.27542,16.79723 l 0,0 c -3.97712,-1.07539 -7.83427,-2.49992 -11.09431,-5.10782 -4.07843,-3.03604 -7.01708,-6.8597 -9.11343,-11.51825 -3.07265,-5.15849 -6.28437,-10.40114 -7.34763,-16.40103 -0.59537,-5.34392 -0.23534,-10.72976 -0.14173,-16.09654 0.37606,-5.68749 1.57262,-11.23375 3.60388,-16.57357 2.67979,-7.48809 5.02431,-15.13749 8.92957,-22.11673 0,0 27.03956,-12.05322 27.03956,-12.05322 z"
       inkscape:connector-curvature="0" />
    <path
       style="fill:url(#linearGradient3867)"
       id="path3063"
       d="m 539.42112,348.5711 c 19.61626,-13.79341 41.27655,-23.85894 63.26959,-33.04342 9.92223,-3.86521 19.96928,-7.32545 29.5487,-11.98641 4.10931,-1.926 8.69878,-2.11974 13.16012,-2.27219 6.33485,0.68299 10.07245,6.37018 13.82726,10.91928 6.72817,8.72201 12.47542,18.10903 18.3413,27.41287 4.20156,7.71986 8.63384,15.32452 12.83952,23.04492 5.15884,9.42424 8.8751,19.46447 12.84088,29.41187 3.19081,7.85185 5.28008,16.00138 6.56466,24.35673 1.08142,8.34366 1.09628,16.77094 1.21819,25.16868 0.0549,7.23367 0.0678,14.46689 0.0253,21.70053 0.3419,7.64248 -0.20221,15.13727 -1.43739,22.67058 -1.64596,8.73516 -4.46494,17.20607 -7.34055,25.60132 -2.38465,7.46432 -5.28387,14.71843 -8.18746,21.98916 -3.71655,8.05274 -7.81178,15.96364 -12.36243,23.57825 -3.95685,6.52931 -8.8983,12.36912 -14.18123,17.85157 -5.39548,5.87699 -11.85874,10.38387 -18.63085,14.50064 -16.62436,10.74358 -33.54554,19.83627 -52.4607,25.24751 -11.76317,2.89107 -23.60473,5.10547 -35.65285,6.34916 -11.66151,0.71887 -23.3767,1.78648 -35.06497,1.21321 -4.77231,-0.30253 -9.66879,-1.14525 -14.05737,-3.10185 0,0 24.59627,-16.46381 24.59627,-16.46381 l 0,0 c 4.20007,1.4984 8.59998,2.40782 13.06516,2.56866 11.48449,0.40697 22.99877,-0.29565 34.43641,-1.30572 12.00535,-1.46457 23.85384,-3.78809 35.54004,-6.9245 4.87998,-1.57305 9.61985,-3.32195 14.35696,-5.28467 9.38829,-3.88983 28.04051,-13.71903 -11.90038,8.16226 6.73198,-3.9225 13.36305,-7.99654 18.73087,-13.74317 5.38659,-5.30093 10.50204,-10.96071 14.60591,-17.32957 4.78098,-7.32006 8.52989,-15.2761 12.49483,-23.05787 2.86015,-7.28943 5.89544,-14.46618 8.30417,-21.92796 3.01136,-8.19476 5.68073,-16.57391 7.52055,-25.11091 1.20908,-7.37925 1.99317,-14.70344 1.55052,-22.20343 -0.0129,-7.23902 0.0655,-14.47689 0.0671,-21.71596 -0.006,-8.28027 -0.0847,-16.58387 -1.01589,-24.82103 -1.13443,-8.16907 -3.23662,-16.11605 -6.11271,-23.85223 -3.77478,-9.88516 -7.39223,-19.83259 -12.62421,-29.07921 -4.34123,-7.60138 -8.85301,-15.09829 -12.82818,-22.90446 -5.603,-9.28946 -11.07318,-18.70327 -18.13892,-26.99186 -3.5236,-3.88794 -6.97087,-8.78355 -12.7576,-8.41479 -4.2973,0.33245 -8.50658,1.02016 -12.35884,3.08818 -9.32459,4.2393 -19.18331,7.12043 -28.61827,11.0956 -8.28232,3.51241 -16.53585,7.04753 -24.55038,11.14803 -7.85101,4.01683 -25.76867,14.69754 13.65937,-8.17782 0.9097,-0.52779 -1.82158,1.05184 -2.73237,1.57775 0,0 -27.55011,11.05608 -27.55011,11.05608 z"
       inkscape:connector-curvature="0" />
    <path
       style="fill:url(#linearGradient3907)"
       id="path3065"
       d="m 588.43303,423.64469 c -4.0669,4.64864 -7.93532,9.46713 -11.48954,14.51847 -2.67061,3.7969 -4.49758,8.10389 -6.16634,12.41391 -1.64226,5.27503 -2.51126,10.70549 -3.09254,16.18433 -0.64552,7.20096 -0.63215,14.43437 -0.65807,21.657 -0.0328,6.8708 1.73101,13.44222 3.78465,19.93231 1.79412,4.77107 4.27876,9.10203 7.73117,12.8443 3.48213,3.34492 7.53819,4.80896 12.20308,5.57937 4.8295,1.20354 9.76817,1.77775 14.71666,2.19653 0,0 -23.95949,17.05034 -23.95949,17.05034 l 0,0 c -5.01486,-0.56411 -9.99842,-1.31869 -14.92821,-2.41287 -5.08946,-1.20596 -9.58372,-3.30462 -13.28315,-7.11379 -3.65742,-4.11702 -6.2554,-8.86794 -8.14758,-14.04212 -2.20934,-6.75128 -4.08672,-13.59721 -4.20683,-20.75591 0.0413,-7.28732 0.0724,-14.5825 0.47966,-21.85979 0.46306,-5.62228 1.22349,-11.19077 2.60732,-16.66556 1.24948,-4.67353 3.62786,-9.09506 5.9809,-13.29299 3.51542,-5.05666 7.19933,-9.94174 11.1699,-14.6521 0,0 27.25841,-11.58143 27.25841,-11.58143 z"
       inkscape:connector-curvature="0" />
    <path
       style="fill:url(#linearGradient3875)"
       id="path3067"
       d="m 808.54848,145.34187 c 11.81553,0.31725 23.63839,0.25027 35.45707,0.20567 9.01083,-0.0388 18.02159,-0.0916 27.03223,-0.16222 4.9298,-0.17185 9.97839,0.0759 14.66957,1.70264 5.40847,2.80767 8.01679,8.76974 10.7266,13.91644 4.39214,9.67727 8.61535,19.4017 12.17646,29.41815 4.71751,12.68138 7.55431,25.9368 10.19079,39.17675 3.03667,15.42884 5.88723,30.88831 8.95099,46.31267 2.29796,11.57701 3.91965,23.25296 6.21599,34.83076 1.93139,9.76125 2.48366,19.69618 2.77083,29.61781 0.13504,10.3101 0.38812,20.62575 0.007,30.93233 -0.4771,9.68865 -1.14433,19.29887 -3.17022,28.79602 -2.13715,9.57793 -3.78905,19.25247 -5.65438,28.88678 -2.04033,10.11549 -3.60656,20.30281 -5.79341,30.38903 -1.30839,7.13411 -3.03469,14.1898 -4.04797,21.37456 -0.74398,7.88917 -1.11554,15.78359 -2.18827,23.64215 -1.67625,10.15889 -2.30545,20.43212 -2.67563,30.7076 -0.22437,7.82995 -0.4081,15.65811 0.3031,23.46515 0.94159,7.01428 0.88427,14.10734 1.57435,21.13997 0.83322,5.51995 1.14527,11.11294 1.97465,16.6295 0.65362,5.28288 2.21827,10.24598 4.41329,15.0757 2.47109,4.79997 5.35396,9.25257 9.44166,12.79389 4.75922,3.01045 9.88594,5.45608 15.04715,7.69565 7.19927,3.47826 14.24745,7.25776 21.30725,11.00755 2.67395,1.60961 5.42368,3.07481 8.11031,4.66224 0,0 -24.68781,15.99248 -24.68781,15.99248 l 0,0 c -2.62832,-1.56249 -5.27144,-3.09898 -7.91132,-4.64185 -6.97822,-3.77756 -13.92417,-7.64647 -21.2097,-10.81035 -5.39657,-2.44619 -11.01655,-4.73839 -15.75909,-8.34093 -4.22376,-3.93737 -7.17054,-8.84912 -9.88136,-13.91828 -2.35975,-5.02373 -4.2991,-10.14297 -4.95065,-15.69431 -0.96596,-5.57458 -0.91657,-11.29563 -1.87452,-16.88298 -0.72884,-7.04057 -0.611,-14.15273 -1.54841,-21.18253 -0.74116,-7.97552 -0.64833,-15.93069 -0.23067,-23.93271 0.44837,-10.32955 0.97909,-20.67525 2.46052,-30.91785 1.09836,-7.82103 1.49606,-15.6731 2.01666,-23.54525 0.94031,-7.33046 2.6402,-14.47591 4.13563,-21.70869 2.39098,-10.05071 3.99223,-20.21792 5.99421,-30.34891 1.66611,-9.67368 3.45462,-19.33797 5.51216,-28.93415 2.13086,-9.34689 2.96646,-18.79263 3.39167,-28.36481 0.64689,-10.22963 0.19421,-20.50251 0.13771,-30.7463 -0.30381,-9.77032 -0.75511,-19.56521 -2.5794,-29.19314 -2.18522,-11.65528 -3.66652,-23.39395 -5.73969,-35.06855 -3.04982,-15.42285 -5.67555,-30.92119 -8.99166,-46.28754 -2.60844,-13.0796 -5.54418,-26.14136 -10.28029,-38.64055 -3.59472,-9.82661 -7.66858,-19.43382 -12.2024,-28.86548 -2.55079,-4.3379 -4.88308,-9.865 -9.92333,-11.72604 -4.58235,-1.06494 -9.24656,-1.31056 -13.9429,-1.18526 -8.86178,-0.071 -17.72368,-0.12355 -26.58566,-0.16222 -12.00749,-0.0458 -24.01868,-0.10414 -36.02325,0.20567 0,0 23.8338,-17.31626 23.8338,-17.31626 z"
       inkscape:connector-curvature="0" />
    <path
       style="fill:url(#linearGradient3883)"
       id="path3069"
       d="m 814.20802,436.30449 c -6.14863,-0.61641 -12.22401,-1.63059 -18.33406,-2.5385 -5.92353,-0.84181 -11.91171,-0.99948 -17.88487,-1.09168 -4.60768,-0.0501 -9.21552,0.004 -13.82327,-0.0117 -4.52132,-6.5e-4 -9.04261,0.016 -13.56392,0.0246 -2.53893,0.32584 -5.44277,-0.64693 -7.87278,0.41997 -0.46283,0.2032 -1.68253,1.11765 -1.24136,0.87093 8.07297,-4.51487 16.09551,-9.11933 24.14327,-13.67899 -3.08829,2.20513 -5.17204,5.64775 -6.70489,9.06228 -0.66927,1.93833 -1.23204,3.9108 -1.83066,5.87153 0,0 -26.72244,12.66175 -26.72244,12.66175 l 0,0 c 0.58111,-2.02957 1.31585,-4.00984 1.72571,-6.08486 1.31007,-3.9648 3.45231,-7.32512 5.91119,-10.67979 23.92842,-13.8217 19.37529,-16.12117 36.50805,-15.82104 4.51157,0.003 9.02316,0.0102 13.53471,-0.006 4.59815,-0.0274 9.19715,-0.002 13.79378,0.12842 6.02988,0.20682 12.07652,0.46699 18.04054,1.44135 6.16545,0.97781 12.32983,1.83511 18.55568,2.34441 0,0 -24.23468,17.08745 -24.23468,17.08745 z"
       inkscape:connector-curvature="0" />
    <path
       style="fill:url(#linearGradient3891)"
       id="path3071"
       d="m 781.10241,498.91274 c -1.14751,4.90558 -2.53491,9.73388 -4.06265,14.53154 -1.59489,4.72574 -3.93298,9.16242 -6.1655,13.6102 -2.44129,4.99632 -4.64647,10.12063 -6.23614,15.45344 -1.16025,4.14263 -1.34225,8.4415 -1.49242,12.7126 -0.16126,5.15223 -0.10031,10.27751 0.41495,15.40602 0.77295,5.52228 2.42187,10.96729 5.3326,15.74408 2.74479,4.57657 6.63835,8.28158 10.54597,11.85638 4.41731,3.15069 8.55272,6.65949 12.82163,9.99939 4.76119,3.43274 8.92847,7.72778 14.06108,10.60438 2.2063,1.02307 4.56282,1.60223 6.85447,2.39645 0,0 -24.43336,16.53713 -24.43336,16.53713 l 0,0 c -2.43775,-0.84234 -4.91068,-1.6259 -7.14405,-2.95145 -5.01815,-3.24702 -9.37859,-7.40807 -14.21944,-10.91432 -4.33912,-3.37133 -8.63357,-6.80424 -12.94108,-10.21446 -4.08566,-3.80961 -8.20145,-7.72017 -11.12883,-12.52368 -2.94587,-5.22032 -4.70481,-11.02074 -5.776,-16.90271 -0.65036,-5.2192 -0.92379,-10.41576 -0.73061,-15.68072 0.0215,-4.49207 0.18544,-9.00946 1.20882,-13.40395 1.44329,-5.50751 3.64215,-10.78699 6.07871,-15.92057 1.95372,-4.45607 4.42407,-8.67334 6.23322,-13.1963 1.42869,-4.69236 3.17062,-9.25789 4.09534,-14.09812 0,0 26.68329,-13.04533 26.68329,-13.04533 z"
       inkscape:connector-curvature="0" />
    <path
       style="fill:url(#linearGradient3899)"
       id="path3073"
       d="m 807.67094,685.28418 c 7.11499,0.2196 14.23534,0.13735 21.35243,0.0932 5.45543,0.20577 10.77639,-0.0194 16.05814,-1.44014 10.9212,-3.19554 33.40423,-17.6111 -11.62459,8.1923 64.07757,-37.02526 12.01309,-6.92406 4.25829,-2.50442 -0.7215,0.4112 1.41226,-0.87479 2.10237,-1.33675 2.17135,-1.45348 4.17624,-3.08635 6.17825,-4.75999 3.72125,-3.42042 7.68213,-6.56135 11.70851,-9.61142 1.92398,-1.69371 1.04649,-0.8063 2.64981,-2.64497 0,0 27.14977,-11.81198 27.14977,-11.81198 l 0,0 c -1.36691,2.41613 -0.57387,1.26483 -2.39311,3.44422 -3.83863,3.29277 -8.22432,5.95698 -11.82501,9.54702 -2.52749,2.27148 -5.11737,4.80058 -8.06176,6.53858 -7.56989,4.46832 -59.57132,34.53804 -4.26599,2.53726 -11.96676,6.90312 -25.09197,16.84681 -39.32276,20.24579 -5.41393,0.98132 -10.85618,1.00391 -16.34795,0.84974 -7.20269,-0.0455 -14.40824,-0.12154 -21.609,0.0932 0,0 23.9926,-17.43164 23.9926,-17.43164 z"
       inkscape:connector-curvature="0" />
    <path
       style="fill:url(#linearGradient3947)"
       id="path3083"
       d="m 297.76522,453.06198 c 3.94334,3.64298 6.54771,8.12719 8.05466,13.23089 1.14562,4.70522 1.31515,9.55672 1.40602,14.37494 -0.0265,4.06956 0.14241,8.14987 -0.14832,12.21153 -0.54471,3.66418 -1.39121,7.25412 -2.57692,10.76122 -1.3016,3.41026 -2.90519,6.72801 -4.70334,9.90542 0,0 -27.0773,12.12386 -27.0773,12.12386 l 0,0 c 1.69072,-3.16595 3.60018,-6.23344 4.94015,-9.57007 1.42025,-3.25906 2.12285,-6.66693 2.82734,-10.13725 0.86576,-3.85679 0.15996,-7.92002 0.41939,-11.84656 -0.0179,-4.58559 -0.0378,-9.20881 -0.9769,-13.71843 -1.2326,-4.5764 -3.45212,-8.62886 -7.30288,-11.54564 0,0 25.1381,-15.78991 25.1381,-15.78991 z"
       inkscape:connector-curvature="0" />
  </g>
</svg>
